{
.appVersion = "3151";
.formatVersion = 3;
customParameters = (
{
name = descriptions;
value = "\"Orienta\" is a spacious sans serif, with excellent visual performance at very small text sizes.\012The balance between forms and counterforms creates strong legibility. If used in titles, you can see the details are all carefully designed, especially in the strokes of each letter.";
},
{
name = licenses;
value = "This Font Software is licensed under the SIL Open Font License, Version 1.1. This license is available with a FAQ at: http://scripts.sil.org/OFL";
},
{
name = licenseURL;
value = "http://scripts.sil.org/OFL";
},
{
name = sampleTexts;
value = "";
},
{
name = uniqueID;
value = "EduardoRodriguezTunni: Orienta: 2012";
},
{
name = versionString;
value = "Version 1.001";
},
{
name = codePageRanges;
value = (
"1252",
"bit 29"
);
},
{
name = openTypeOS2FamilyClass;
value = (
0,
0
);
},
{
name = panose;
value = (
2,
0,
6,
3,
4,
0,
0,
2,
0,
4
);
},
{
name = openTypeOS2SubscriptXOffset;
value = 0;
},
{
name = openTypeOS2SubscriptXSize;
value = 700;
},
{
name = openTypeOS2SubscriptYOffset;
value = 140;
},
{
name = openTypeOS2SubscriptYSize;
value = 650;
},
{
name = openTypeOS2SuperscriptXOffset;
value = 0;
},
{
name = openTypeOS2SuperscriptXSize;
value = 700;
},
{
name = openTypeOS2SuperscriptYOffset;
value = 477;
},
{
name = openTypeOS2SuperscriptYSize;
value = 650;
},
{
name = unicodeRanges;
value = (
0,
1,
2,
3,
5,
7,
31,
32,
33,
35,
38,
45,
60,
62
);
},
{
name = vendorID;
value = TIPO;
},
{
name = trademarks;
value = "Orienta is a trademark of Eduardo Rodriguez Tunni.";
},
{
name = year;
value = 2012;
}
);
date = "2023-02-10 14:20:03 +0000";
familyName = Orienta;
featurePrefixes = (
{
code = "languagesystem DFLT dflt;
languagesystem latn dflt; # Latin default
";
name = Languagesystems;
},
{
code = "#
# Feature definitions
#

###
# OpenType Layout feature definitions
# Format: Adobe FDK for OpenType (AFDKO) version 2.5
# Generated on: 2013-11-26 17:54

glyphs = (
{
glyphname = A;
layers = (
{
layerId = master01;
shapes = (
{
closed = 1;
nodes = (
(215,700,l),
(15,0,l),
(109,0,l),
(163,191,l),
(418,191,l),
(473,0,l),
(567,0,l),
(367,700,l,{
name = hr00;
})
);
},
{
closed = 1;
nodes = (
(396,269,l),
(186,269,l),
(291,637,l)
);
}
);
width = 582;
}
);
unicode = 65;
},
{
glyphname = AE;
layers = (
{
layerId = master01;
shapes = (
{
closed = 1;
nodes = (
(335,700,l),
(5,0,l),
(104,0,l),
(236,281,l),
(405,281,l),
(405,0,l),
(795,0,l),
(795,78,l),
(501,78,l),
(501,281,l),
(765,281,l),
(765,359,l),
(501,359,l),
(501,622,l),
(795,622,l),
(795,700,l,{
name = hr00;
})
);
},
{
closed = 1;
nodes = (
(405,622,l),
(405,359,l),
(273,359,l),
(397,622,l)
);
}
);
width = 860;
}
);
unicode = 198;
},
{
glyphname = B;
layers = (
{
layerId = master01;
shapes = (
{
closed = 1;
nodes = (
(100,700,l),
(100,0,l),
(332,0,ls),
(475,0,o),
(546,78,o),
(546,195,cs),
(546,278,o),
(507,338,o),
(430,364,c),
(487,391,o),
(516,439,o),
(516,506,cs,{
name = hr01;
}),
(516,609,o),
(445,700,o),
(302,700,c)
);
},
{
closed = 1;
nodes = (
(426,321,o),
(453,261,o),
(453,201,cs,{
name = hr02;
}),
(453,142,o),
(426,78,o),
(332,78,cs),
(196,78,l),
(196,321,l),
(332,321,ls)
);
},
{
closed = 1;
nodes = (
(396,622,o),
(423,565,o),
(423,512,cs,{
name = hr03;
}),
(423,460,o),
(396,399,o),
(302,399,cs),
(196,399,l),
(196,622,l),
(302,622,ls)
);
}
);
width = 601;
}
);
unicode = 66;
},
{
glyphname = C;
layers = (
{
layerId = master01;
shapes = (
{
closed = 1;
nodes = (
(545,675,o),
(468,715,o),
(359,715,cs),
(195,715,o),
(70,592,o),
(70,351,cs),
(70,110,o),
(192,-15,o),
(361,-15,cs),
(453,-15,o),
(531,26,o),
(581,75,c),
(535,134,l),
(499,96,o),
(436,63,o),
(365,63,cs),
(252,63,o),
(170,156,o),
(170,351,cs),
(170,546,o),
(251,637,o),
(362,637,cs),
(423,637,o),
(474,602,o),
(495,532,c),
(580,563,l,{
name = hr00;
})
);
}
);
width = 600;
}
);
unicode = 67;
},
{
glyphname = D;
layers = (
{
layerId = master01;
shapes = (
{
closed = 1;
nodes = (
(433,622,o),
(514,536,o),
(514,351,cs),
(514,166,o),
(432,78,o),
(319,78,cs),
(196,78,l),
(196,622,l),
(322,622,ls,{
name = hr00;
})
);
},
{
closed = 1;
nodes = (
(100,0,l),
(323,0,ls),
(492,0,o),
(614,120,o),
(614,351,cs),
(614,582,o),
(489,700,o),
(325,700,cs),
(100,700,l)
);
}
);
width = 684;
}
);
unicode = 68;
},
{
glyphname = E;
layers = (
{
layerId = master01;
shapes = (
{
closed = 1;
nodes = (
(100,700,l),
(100,0,l),
(490,0,l),
(490,78,l),
(196,78,l),
(196,311,l),
(460,311,l),
(460,389,l),
(196,389,l),
(196,622,l),
(490,622,l),
(490,700,l,{
name = hr00;
})
);
}
);
width = 555;
}
);
unicode = 69;
},
{
glyphname = F;
layers = (
{
layerId = master01;
shapes = (
{
closed = 1;
nodes = (
(100,700,l),
(100,0,l),
(196,0,l),
(196,311,l),
(440,311,l),
(440,389,l),
(196,389,l),
(196,622,l),
(470,622,l),
(470,700,l,{
name = hr00;
})
);
}
);
width = 490;
}
);
unicode = 70;
},
{
glyphname = G;
layers = (
{
layerId = master01;
shapes = (
{
closed = 1;
nodes = (
(389,360,l),
(389,282,l),
(508,282,l),
(508,110,l),
(471,83,o),
(420,63,o),
(365,63,cs),
(252,63,o),
(170,156,o),
(170,351,cs),
(170,546,o),
(251,637,o),
(362,637,cs),
(423,637,o),
(474,602,o),
(495,532,c),
(580,563,l),
(545,675,o),
(468,715,o),
(359,715,cs),
(195,715,o),
(70,592,o),
(70,351,cs),
(70,110,o),
(192,-15,o),
(361,-15,cs),
(430,-15,o),
(485,8,o),
(530,40,c),
(548,0,l,{
name = hr01;
}),
(594,0,l),
(594,360,l),
(508,360,l)
);
}
);
width = 674;
}
);
unicode = 71;
},
{
glyphname = H;
layers = (
{
layerId = master01;
shapes = (
{
closed = 1;
nodes = (
(490,700,l),
(490,389,l),
(196,389,l),
(196,700,l),
(100,700,l),
(100,0,l),
(196,0,l),
(196,311,l),
(490,311,l),
(490,0,l),
(586,0,l),
(586,700,l,{
name = hr00;
})
);
}
);
width = 686;
}
);
unicode = 72;
},
{
glyphname = I;
layers = (
{
layerId = master01;
shapes = (
{
closed = 1;
nodes = (
(100,700,l),
(100,0,l),
(196,0,l),
(196,700,l,{
name = hr00;
})
);
}
);
width = 296;
}
);
unicode = 73;
},
{
glyphname = J;
layers = (
{
layerId = master01;
shapes = (
{
closed = 1;
nodes = (
(234,700,l),
(234,164,ls),
(234,91,o),
(202,63,o),
(156,63,cs),
(114,63,o),
(85,92,o),
(73,146,c),
(-10,118,l),
(19,23,o),
(78,-15,o),
(156,-15,cs),
(273,-15,o),
(330,42,o),
(330,199,cs),
(330,700,l,{
name = hr00;
})
);
}
);
width = 425;
}
);
unicode = 74;
},
{
glyphname = K;
layers = (
{
layerId = master01;
shapes = (
{
closed = 1;
nodes = (
(100,700,l),
(100,0,l),
(196,0,l),
(196,241,l),
(251,313,l),
(456,0,l),
(561,0,l),
(307,387,l),
(546,700,l),
(441,700,l),
(196,374,l),
(196,700,l,{
name = hr00;
})
);
}
);
width = 561;
}
);
unicode = 75;
},
{
glyphname = L;
layers = (
{
layerId = master01;
shapes = (
{
closed = 1;
nodes = (
(440,78,l),
(196,78,l),
(196,700,l),
(100,700,l),
(100,0,l),
(440,0,l,{
name = hr00;
})
);
}
);
width = 450;
}
);
unicode = 76;
},
{
glyphname = M;
layers = (
{
layerId = master01;
shapes = (
{
closed = 1;
nodes = (
(718,0,l),
(718,700,l),
(582,700,l),
(409,227,l),
(236,700,l),
(100,700,l),
(100,0,l),
(196,0,l),
(196,580,l),
(372,100,l),
(446,100,l),
(622,580,l),
(622,0,l,{
name = hr00;
})
);
}
);
width = 818;
}
);
unicode = 77;
},
{
glyphname = N;
layers = (
{
layerId = master01;
shapes = (
{
closed = 1;
nodes = (
(500,700,l),
(500,122,l),
(236,700,l),
(100,700,l),
(100,0,l),
(196,0,l),
(196,577,l),
(460,0,l),
(596,0,l),
(596,700,l,{
name = hr00;
})
);
}
);
width = 696;
}
);
unicode = 78;
},
{
glyphname = Eng;
layers = (
{
layerId = master01;
shapes = (
{
closed = 1;
nodes = (
(500,700,l),
(500,198,l),
(236,700,l),
(100,700,l),
(100,0,l),
(196,0,l),
(196,577,l),
(500,2,l),
(500,-55,ls),
(500,-128,o),
(468,-156,o),
(422,-156,cs),
(380,-156,o),
(351,-127,o),
(339,-73,c),
(256,-101,l),
(285,-196,o),
(344,-234,o),
(422,-234,cs),
(539,-234,o),
(596,-177,o),
(596,-20,cs),
(596,700,l,{
name = hr00;
})
);
}
);
width = 696;
}
);
unicode = 330;
},
{
glyphname = O;
layers = (
{
layerId = master01;
shapes = (
{
closed = 1;
nodes = (
(70,109,o),
(195,-15,o),
(361,-15,cs),
(526,-15,o),
(654,109,o),
(654,351,cs),
(654,591,o),
(526,715,o),
(361,715,cs),
(195,715,o),
(70,591,o),
(70,351,cs,{
name = hr00;
})
);
},
{
closed = 1;
nodes = (
(170,545,o),
(249,637,o),
(361,637,cs),
(475,637,o),
(554,545,o),
(554,351,cs),
(554,155,o),
(475,63,o),
(361,63,cs),
(249,63,o),
(170,155,o),
(170,351,cs)
);
}
);
width = 724;
}
);
unicode = 79;
},
{
glyphname = OE;
layers = (
{
layerId = master01;
shapes = (
{
closed = 1;
nodes = (
(365,78,ls),
(252,78,o),
(170,166,o),
(170,351,cs),
(170,536,o),
(251,622,o),
(362,622,cs),
(488,622,l),
(488,700,l),
(359,700,ls),
(195,700,o),
(70,582,o),
(70,351,cs),
(70,120,o),
(192,0,o),
(361,0,cs),
(488,0,l),
(488,78,l,{
name = hr00;
})
);
},
{
pos = (351,0);
ref = E;
}
);
width = 906;
}
);
unicode = 338;
},
{
glyphname = P;
layers = (
{
layerId = master01;
shapes = (
{
closed = 1;
nodes = (
(100,700,l),
(100,0,l),
(196,0,l),
(196,261,l),
(302,261,ls),
(462,261,o),
(541,352,o),
(541,480,cs),
(541,606,o),
(462,700,o),
(302,700,c,{
name = hr00;
})
);
},
{
closed = 1;
nodes = (
(416,622,o),
(448,548,o),
(448,480,cs),
(448,412,o),
(416,339,o),
(302,339,cs),
(196,339,l),
(196,622,l),
(302,622,ls)
);
}
);
width = 571;
}
);
unicode = 80;
},
{
glyphname = Thorn;
layers = (
{
layerId = master01;
shapes = (
{
closed = 1;
nodes = (
(100,700,l),
(100,0,l),
(196,0,l),
(196,130,l),
(302,130,ls),
(462,130,o),
(541,221,o),
(541,349,cs),
(541,475,o),
(462,570,o),
(302,570,cs),
(196,570,l),
(196,700,l,{
name = hr00;
})
);
},
{
closed = 1;
nodes = (
(416,492,o),
(448,417,o),
(448,349,cs),
(448,281,o),
(416,208,o),
(302,208,cs),
(196,208,l),
(196,492,l),
(302,492,ls)
);
}
);
width = 571;
}
);
unicode = 222;
},
{
glyphname = Q;
layers = (
{
layerId = master01;
shapes = (
{
closed = 1;
nodes = (
(546,-8,o),
(460,30,o),
(361,30,c),
(361,-15,l),
(402,-15,o),
(464,-69,o),
(464,-153,c),
(488,-153,l),
(546,-129,l,{
name = hr00;
})
);
},
{
ref = O;
}
);
width = 724;
}
);
unicode = 81;
},
{
glyphname = R;
layers = (
{
layerId = master01;
shapes = (
{
closed = 1;
nodes = (
(581,0,l),
(456,258,ls),
(448,274,o),
(438,292,o),
(419,305,c),
(500,337,o),
(541,404,o),
(541,490,cs),
(541,607,o),
(462,700,o),
(302,700,cs),
(100,700,l),
(100,0,l),
(196,0,l),
(196,286,l),
(302,286,l),
(303,286,l),
(330,286,o),
(349,277,o),
(365,242,cs),
(476,0,l,{
name = hr00;
})
);
},
{
closed = 1;
nodes = (
(416,622,o),
(448,555,o),
(448,493,cs),
(448,430,o),
(416,364,o),
(302,364,cs),
(196,364,l),
(196,622,l),
(302,622,ls)
);
}
);
width = 611;
}
);
unicode = 82;
},
{
glyphname = S;
layers = (
{
layerId = master01;
shapes = (
{
closed = 1;
nodes = (
(418,106,o),
(364,63,o),
(290,63,cs),
(211,63,o),
(158,108,o),
(134,202,c),
(48,171,l),
(81,39,o),
(163,-15,o),
(281,-15,cs),
(456,-15,o),
(514,99,o),
(514,182,cs),
(514,406,o),
(165,371,o),
(165,535,cs),
(165,599,o),
(212,637,o),
(279,637,cs),
(352,637,o),
(401,597,o),
(423,532,c),
(510,563,l),
(478,671,o),
(402,715,o),
(292,715,cs),
(125,715,o),
(69,607,o),
(69,527,cs),
(69,282,o),
(418,325,o),
(418,163,cs,{
name = hr00;
})
);
}
);
width = 566;
}
);
unicode = 83;
},
{
glyphname = T;
layers = (
{
layerId = master01;
shapes = (
{
closed = 1;
nodes = (
(5,622,l),
(189,622,l),
(189,0,l),
(285,0,l),
(285,622,l),
(469,622,l),
(469,700,l),
(5,700,l,{
name = hr00;
})
);
}
);
width = 474;
}
);
unicode = 84;
},
{
glyphname = U;
layers = (
{
layerId = master01;
shapes = (
{
closed = 1;
nodes = (
(485,700,l),
(485,236,ls),
(485,108,o),
(425,60,o),
(335,60,cs),
(246,60,o),
(186,108,o),
(186,236,cs),
(186,700,l),
(90,700,l),
(90,236,ls),
(90,64,o),
(195,-15,o),
(335,-15,cs),
(473,-15,o),
(581,64,o),
(581,236,cs),
(581,700,l,{
name = hr00;
})
);
}
);
width = 671;
}
);
unicode = 85;
},
{
glyphname = V;
layers = (
{
layerId = master01;
shapes = (
{
closed = 1;
nodes = (
(448,700,l),
(281,68,l),
(114,700,l),
(20,700,l),
(205,0,l),
(357,0,l),
(542,700,l,{
name = hr00;
})
);
}
);
width = 562;
}
);
unicode = 86;
},
{
glyphname = W;
layers = (
{
layerId = master01;
shapes = (
{
closed = 1;
nodes = (
(735,0,l),
(890,700,l),
(796,700,l),
(658,79,l),
(512,700,l),
(408,700,l),
(261,78,l),
(124,700,l),
(30,700,l),
(185,0,l),
(327,0,l),
(460,564,l),
(593,0,l,{
name = hr00;
})
);
}
);
width = 920;
}
);
unicode = 87;
},
{
glyphname = X;
layers = (
{
layerId = master01;
shapes = (
{
closed = 1;
nodes = (
(36,700,l),
(243,356,l),
(30,0,l),
(135,0,l),
(295,269,l),
(458,0,l),
(566,0,l),
(353,352,l),
(560,700,l),
(455,700,l),
(300,440,l),
(144,700,l,{
name = hr00;
})
);
}
);
width = 596;
}
);
unicode = 88;
},
{
glyphname = Y;
layers = (
{
layerId = master01;
shapes = (
{
closed = 1;
nodes = (
(15,700,l),
(210,260,l),
(210,0,l),
(306,0,l),
(306,260,l),
(501,700,l),
(402,700,l),
(258,361,l),
(114,700,l,{
name = hr00;
})
);
}
);
width = 516;
}
);
unicode = 89;
},
{
glyphname = Z;
layers = (
{
layerId = master01;
shapes = (
{
closed = 1;
nodes = (
(485,0,l),
(485,78,l),
(159,78,l),
(492,656,l),
(492,700,l),
(60,700,l),
(60,622,l),
(368,622,l),
(35,44,l),
(35,0,l,{
name = hr00;
})
);
}
);
width = 527;
}
);
unicode = 90;
},
{
glyphname = a;
layers = (
{
layerId = master01;
shapes = (
{
closed = 1;
nodes = (
(332,467,o),
(370,425,o),
(370,356,cs),
(370,293,l),
(337,303,o),
(300,309,o),
(264,309,cs),
(134,309,o),
(55,244,o),
(55,135,cs),
(55,50,o),
(117,-15,o),
(198,-15,cs),
(274,-15,o),
(334,27,o),
(375,70,c),
(381,4,o),
(417,-15,o),
(465,-15,cs),
(495,-15,o),
(521,-5,o),
(542,5,c),
(526,67,l),
(516,62,o),
(503,58,o),
(492,58,cs),
(477,58,o),
(466,64,o),
(466,85,cs),
(466,321,ls),
(466,479,o),
(407,545,o),
(268,545,cs),
(167,545,o),
(103,501,o),
(76,412,c),
(159,384,l),
(175,438,o),
(213,467,o),
(268,467,cs,{
name = hr00;
})
);
},
{
closed = 1;
nodes = (
(182,63,o),
(151,99,o),
(151,143,cs),
(151,219,o),
(212,244,o),
(278,244,cs),
(309,244,o),
(342,238,o),
(370,229,c),
(370,132,l),
(328,90,o),
(278,63,o),
(227,63,cs)
);
}
);
width = 567;
}
);
unicode = 97;
},
{
glyphname = ae;
layers = (
{
layerId = master01;
shapes = (
{
closed = 1;
nodes = (
(538,63,o),
(475,119,o),
(467,237,c),
(821,237,l),
(821,307,ls),
(821,467,o),
(734,545,o),
(608,545,cs),
(538,545,o),
(477,519,o),
(434,469,c),
(403,522,o),
(350,545,o),
(268,545,cs),
(174,545,o),
(105,507,o),
(76,412,c),
(159,384,l),
(175,438,o),
(213,467,o),
(268,467,cs),
(328,467,o),
(370,429,o),
(370,356,cs),
(370,307,l),
(258,307,ls),
(128,307,o),
(55,244,o),
(55,135,cs),
(55,27,o),
(126,-15,o),
(208,-15,cs),
(287,-15,o),
(369,26,o),
(418,82,c),
(462,18,o),
(531,-15,o),
(615,-15,cs),
(700,-15,o),
(769,25,o),
(810,72,c),
(767,124,l),
(737,95,o),
(686,63,o),
(618,63,cs,{
name = hr00;
})
);
},
{
closed = 1;
nodes = (
(480,415,o),
(537,467,o),
(609,467,cs),
(683,467,o),
(726,409,o),
(726,307,c),
(468,307,l)
);
},
{
closed = 1;
nodes = (
(182,63,o),
(151,99,o),
(151,143,cs),
(151,219,o),
(212,237,o),
(278,237,cs),
(371,237,l),
(373,203,o),
(378,172,o),
(387,145,c),
(342,96,o),
(283,63,o),
(227,63,cs)
);
}
);
width = 891;
}
);
unicode = 230;
},
{
glyphname = b;
layers = (
{
layerId = master01;
shapes = (
{
closed = 1;
nodes = (
(284,545,o),
(233,514,o),
(196,478,c),
(196,750,l),
(100,750,l),
(100,0,l),
(146,0,l),
(171,45,l),
(211,10,o),
(264,-15,o),
(325,-15,cs,{
name = hr01;
}),
(454,-15,o),
(555,80,o),
(555,265,cs),
(555,450,o),
(474,545,o),
(352,545,cs)
);
},
{
closed = 1;
nodes = (
(404,467,o),
(455,402,o),
(455,265,cs),
(455,128,o),
(399,63,o),
(321,63,cs),
(271,63,o),
(226,81,o),
(196,105,c),
(196,408,l),
(233,444,o),
(278,467,o),
(331,467,cs)
);
}
);
width = 625;
}
);
unicode = 98;
},
{
glyphname = c;
layers = (
{
layerId = master01;
shapes = (
{
closed = 1;
nodes = (
(468,507,o),
(400,545,o),
(310,545,cs),
(174,545,o),
(70,450,o),
(70,265,cs),
(70,80,o),
(171,-15,o),
(311,-15,cs),
(388,-15,o),
(457,25,o),
(498,72,c),
(455,124,l),
(425,95,o),
(374,63,o),
(315,63,cs),
(231,63,o),
(170,128,o),
(170,265,cs),
(170,402,o),
(230,467,o),
(312,467,cs),
(363,467,o),
(399,438,o),
(414,384,c),
(497,412,l,{
name = hr00;
})
);
}
);
width = 528;
}
);
unicode = 99;
},
{
glyphname = d;
layers = (
{
layerId = master01;
shapes = (
{
closed = 1;
nodes = (
(345,-15,o),
(398,19,o),
(436,59,c),
(444,2,o),
(479,-15,o),
(524,-15,cs),
(554,-15,o),
(580,-5,o),
(601,5,c),
(585,67,l),
(575,62,o),
(562,58,o),
(551,58,cs),
(536,58,o),
(525,64,o),
(525,85,cs),
(525,750,l),
(429,750,l),
(429,504,l),
(393,528,o),
(349,545,o),
(300,545,cs),
(171,545,o),
(70,450,o),
(70,265,cs),
(70,80,o),
(151,-15,o),
(273,-15,cs,{
name = hr00;
})
);
},
{
closed = 1;
nodes = (
(221,63,o),
(170,128,o),
(170,265,cs),
(170,402,o),
(226,467,o),
(304,467,cs),
(353,467,o),
(398,448,o),
(429,425,c),
(429,121,l),
(391,86,o),
(346,63,o),
(294,63,cs)
);
}
);
width = 631;
}
);
unicode = 100;
},
{
glyphname = eth;
layers = (
{
layerId = master01;
shapes = (
{
closed = 1;
nodes = (
(225,682,o),
(254,688,o),
(280,688,cs),
(407,688,o),
(460,525,o),
(460,435,c),
(431,471,o),
(380,495,o),
(318,495,cs),
(181,495,o),
(77,408,o),
(77,240,cs),
(77,72,o),
(181,-15,o),
(318,-15,cs),
(455,-15,o),
(560,64,o),
(560,311,cs),
(560,610,o),
(443,765,o),
(293,765,cs),
(243,765,o),
(201,755,o),
(168,731,c),
(192,669,l,{
name = hr00;
})
);
},
{
closed = 1;
nodes = (
(177,348,o),
(212,417,o),
(318,417,cs),
(424,417,o),
(460,348,o),
(460,240,cs),
(460,132,o),
(424,63,o),
(318,63,cs),
(212,63,o),
(177,132,o),
(177,240,cs)
);
},
{
pos = (256,202);
ref = eslash;
}
);
width = 649;
}
);
unicode = 240;
},
{
glyphname = e;
layers = (
{
layerId = master01;
shapes = (
{
closed = 1;
nodes = (
(238,63,o),
(179,119,o),
(171,237,c),
(521,237,l),
(521,307,ls),
(521,467,o),
(434,545,o),
(308,545,cs),
(173,545,o),
(70,450,o),
(70,265,cs),
(70,80,o),
(173,-15,o),
(315,-15,cs),
(400,-15,o),
(469,25,o),
(510,72,c),
(467,124,l),
(437,95,o),
(386,63,o),
(318,63,cs,{
name = hr00;
})
);
},
{
closed = 1;
nodes = (
(383,467,o),
(426,409,o),
(426,307,c),
(172,307,l),
(183,415,o),
(237,467,o),
(309,467,cs)
);
}
);
width = 591;
}
);
unicode = 101;
},
{
glyphname = f;
layers = (
{
layerId = master01;
shapes = (
{
closed = 1;
nodes = (
(131,460,l),
(131,0,l),
(227,0,l),
(227,460,l),
(357,460,l),
(357,530,l),
(227,530,l),
(227,601,ls),
(227,661,o),
(248,687,o),
(288,687,cs),
(322,687,o),
(339,669,o),
(351,637,c),
(431,664,l),
(402,742,o),
(356,765,o),
(289,765,cs),
(187,765,o),
(131,716,o),
(131,591,cs),
(131,530,l),
(55,530,l),
(55,460,l,{
name = hr00;
})
);
}
);
width = 380;
}
);
unicode = 102;
},
{
glyphname = g;
layers = (
{
layerId = master01;
shapes = (
{
closed = 1;
nodes = (
(182,70,o),
(160,95,o),
(160,128,cs),
(160,149,o),
(169,171,o),
(185,186,c),
(216,170,o),
(253,162,o),
(293,162,cs),
(408,162,o),
(497,233,o),
(497,353,cs),
(497,406,o),
(479,450,o),
(450,482,c),
(492,496,o),
(519,529,o),
(519,598,c,{
name = hr01;
}),
(461,618,l),
(441,618,l),
(441,550,o),
(415,529,o),
(384,528,c),
(357,539,o),
(326,545,o),
(293,545,cs),
(177,545,o),
(90,474,o),
(90,353,cs),
(90,299,o),
(107,255,o),
(137,223,c),
(102,196,o),
(87,159,o),
(87,119,cs),
(87,81,o),
(99,50,o),
(123,28,c),
(79,4,o),
(50,-37,o),
(50,-82,cs,{
name = hr02;
}),
(50,-184,o),
(132,-235,o),
(292,-235,cs),
(451,-235,o),
(534,-174,o),
(534,-72,cs),
(534,31,o),
(453,70,o),
(362,70,cs),
(230,70,ls)
);
},
{
closed = 1;
nodes = (
(182,440,o),
(240,477,o),
(293,477,cs),
(346,477,o),
(405,440,o),
(405,353,cs),
(405,267,o),
(346,230,o),
(293,230,cs),
(240,230,o),
(182,267,o),
(182,353,cs,{
name = hr03;
})
);
},
{
closed = 1;
nodes = (
(358,-8,ls),
(397,-8,o),
(446,-18,o),
(446,-73,cs,{
name = hr04;
}),
(446,-135,o),
(396,-161,o),
(292,-161,cs),
(188,-161,o),
(138,-134,o),
(138,-77,cs),
(138,-47,o),
(156,-20,o),
(175,0,c),
(193,-5,o),
(214,-8,o),
(238,-8,c)
);
}
);
width = 559;
}
);
unicode = 103;
},
{
glyphname = h;
layers = (
{
layerId = master01;
shapes = (
{
closed = 1;
nodes = (
(100,750,l),
(100,0,l),
(196,0,l),
(196,397,l),
(230,443,o),
(275,467,o),
(331,467,cs),
(398,467,o),
(430,431,o),
(430,356,cs),
(430,0,l),
(526,0,l),
(526,346,ls),
(526,490,o),
(478,545,o),
(353,545,cs),
(290,545,o),
(231,512,o),
(191,458,c),
(191,750,l,{
name = hr00;
})
);
}
);
width = 616;
}
);
unicode = 104;
},
{
glyphname = i;
layers = (
{
layerId = master01;
shapes = (
{
closed = 1;
nodes = (
(100,530,l),
(100,0,l),
(196,0,l),
(196,530,l,{
name = hr00;
})
);
},
{
closed = 1;
nodes = (
(83,651,o),
(111,630,o),
(148,630,cs),
(186,630,o),
(214,651,o),
(214,697,cs),
(214,743,o),
(186,764,o),
(148,764,cs),
(111,764,o),
(83,743,o),
(83,697,c)
);
}
);
width = 296;
}
);
unicode = 105;
},
{
glyphname = dotlessi;
layers = (
{
layerId = master01;
shapes = (
{
closed = 1;
nodes = (
(100,530,l),
(100,0,l),
(196,0,l),
(196,530,l,{
name = hr00;
})
);
}
);
width = 296;
}
);
unicode = 305;
},
{
glyphname = j;
layers = (
{
layerId = master01;
shapes = (
{
closed = 1;
nodes = (
(89,651,o),
(114,632,o),
(148,632,cs),
(183,632,o),
(208,651,o),
(208,693,cs),
(208,735,o),
(183,754,o),
(148,754,cs),
(114,754,o),
(89,735,o),
(89,693,c,{
name = hr00;
})
);
},
{
closed = 1;
nodes = (
(100,530,l),
(100,-71,ls),
(100,-131,o),
(82,-157,o),
(49,-157,cs),
(20,-157,o),
(6,-139,o),
(-4,-107,c),
(-84,-134,l),
(-58,-212,o),
(-16,-235,o),
(44,-235,cs),
(140,-235,o),
(196,-186,o),
(196,-61,cs),
(196,530,l)
);
}
);
width = 296;
}
);
unicode = 106;
},
{
glyphname = dotlessj;
layers = (
{
layerId = master01;
shapes = (
{
closed = 1;
nodes = (
(100,530,l),
(100,-71,ls),
(100,-131,o),
(82,-157,o),
(49,-157,cs),
(20,-157,o),
(6,-139,o),
(-4,-107,c),
(-84,-134,l),
(-58,-212,o),
(-16,-235,o),
(44,-235,cs),
(140,-235,o),
(196,-186,o),
(196,-61,cs),
(196,530,l,{
name = hr00;
})
);
}
);
width = 296;
}
);
unicode = 567;
},
{
glyphname = k;
layers = (
{
layerId = master01;
shapes = (
{
closed = 1;
nodes = (
(502,0,l),
(274,300,l),
(482,530,l),
(377,530,l),
(196,328,l),
(196,750,l),
(100,750,l),
(100,0,l),
(196,0,l),
(196,213,l),
(219,238,l),
(397,0,l,{
name = hr00;
})
);
}
);
width = 522;
}
);
unicode = 107;
},
{
glyphname = kgreenlandic;
layers = (
{
layerId = master01;
shapes = (
{
closed = 1;
nodes = (
(100,530,l),
(100,0,l),
(196,0,l),
(196,190,l),
(239,238,l),
(417,0,l),
(522,0,l),
(294,300,l),
(502,530,l),
(397,530,l),
(196,305,l),
(196,530,l,{
name = hr00;
})
);
}
);
width = 542;
}
);
unicode = 312;
},
{
glyphname = l;
layers = (
{
layerId = master01;
shapes = (
{
closed = 1;
nodes = (
(100,750,l),
(100,88,ls),
(100,7,o),
(143,-15,o),
(195,-15,cs),
(225,-15,o),
(251,-5,o),
(272,5,c),
(256,67,l),
(246,62,o),
(231,58,o),
(220,58,cs),
(205,58,o),
(196,64,o),
(196,85,cs),
(196,750,l,{
name = hr00;
})
);
}
);
width = 296;
}
);
unicode = 108;
},
{
glyphname = m;
layers = (
{
layerId = master01;
shapes = (
{
closed = 1;
nodes = (
(100,0,l),
(196,0,l),
(196,408,l),
(233,444,o),
(276,467,o),
(320,467,cs,{
name = hr01;
}),
(385,467,o),
(415,430,o),
(415,356,cs),
(415,0,l),
(511,0,l),
(511,346,ls),
(511,368,o),
(510,387,o),
(507,405,c),
(545,443,o),
(589,467,o),
(635,467,cs),
(700,467,o),
(730,430,o),
(730,356,cs),
(730,0,l),
(826,0,l),
(826,346,ls),
(826,490,o),
(778,545,o),
(657,545,cs),
(589,545,o),
(533,504,o),
(494,460,c),
(471,520,o),
(423,545,o),
(342,545,cs),
(278,545,o),
(224,508,o),
(186,468,c),
(181,530,l,{
name = hr02;
}),
(100,530,l)
);
}
);
width = 916;
}
);
unicode = 109;
},
{
glyphname = n;
layers = (
{
layerId = master01;
shapes = (
{
closed = 1;
nodes = (
(100,0,l),
(196,0,l),
(196,407,l),
(236,444,o),
(282,467,o),
(329,467,cs,{
name = hr01;
}),
(398,467,o),
(430,430,o),
(430,356,cs),
(430,0,l),
(526,0,l),
(526,346,ls),
(526,490,o),
(478,545,o),
(353,545,cs),
(284,545,o),
(227,507,o),
(186,466,c),
(181,530,l,{
name = hr02;
}),
(100,530,l)
);
}
);
width = 616;
}
);
unicode = 110;
},
{
glyphname = eng;
layers = (
{
layerId = master01;
shapes = (
{
closed = 1;
nodes = (
(100,0,l),
(196,0,l),
(196,407,l),
(236,444,o),
(282,467,o),
(329,467,cs,{
name = hr01;
}),
(398,467,o),
(430,430,o),
(430,356,cs),
(430,-71,ls),
(430,-131,o),
(412,-157,o),
(379,-157,cs),
(350,-157,o),
(336,-139,o),
(326,-107,c),
(246,-134,l),
(272,-212,o),
(314,-235,o),
(374,-235,cs),
(470,-235,o),
(526,-186,o),
(526,-61,cs),
(526,346,ls),
(526,490,o),
(478,545,o),
(353,545,cs),
(284,545,o),
(227,507,o),
(186,466,c),
(181,530,l,{
name = hr02;
}),
(100,530,l)
);
}
);
width = 616;
}
);
unicode = 331;
},
{
glyphname = o;
layers = (
{
layerId = master01;
shapes = (
{
closed = 1;
nodes = (
(70,80,o),
(174,-15,o),
(311,-15,cs),
(448,-15,o),
(553,80,o),
(553,265,cs),
(553,450,o),
(448,545,o),
(311,545,cs),
(174,545,o),
(70,450,o),
(70,265,cs,{
name = hr00;
})
);
},
{
closed = 1;
nodes = (
(170,402,o),
(229,467,o),
(311,467,cs),
(394,467,o),
(453,402,o),
(453,265,cs),
(453,128,o),
(394,63,o),
(311,63,cs),
(229,63,o),
(170,128,o),
(170,265,cs)
);
}
);
width = 623;
}
);
unicode = 111;
},
{
glyphname = p;
layers = (
{
layerId = master01;
shapes = (
{
closed = 1;
nodes = (
(196,-235,l),
(196,26,l),
(232,1,o),
(276,-15,o),
(325,-15,cs),
(454,-15,o),
(555,80,o),
(555,265,cs),
(555,450,o),
(474,545,o),
(352,545,cs),
(278,545,o),
(224,508,o),
(186,468,c),
(181,530,l,{
name = hr01;
}),
(100,530,l),
(100,-235,l)
);
},
{
closed = 1;
nodes = (
(404,467,o),
(455,402,o),
(455,265,cs),
(455,128,o),
(399,63,o),
(321,63,cs),
(271,63,o),
(226,81,o),
(196,105,c),
(196,408,l),
(233,444,o),
(278,467,o),
(331,467,cs,{
name = hr02;
})
);
}
);
width = 625;
}
);
unicode = 112;
},
{
glyphname = thorn;
layers = (
{
layerId = master01;
shapes = (
{
closed = 1;
nodes = (
(284,545,o),
(233,514,o),
(196,478,c),
(196,750,l),
(100,750,l),
(100,-221,l),
(196,-221,l),
(196,26,l),
(232,1,o),
(276,-15,o),
(325,-15,cs),
(454,-15,o),
(555,80,o),
(555,265,cs),
(555,450,o),
(474,545,o),
(352,545,cs,{
name = hr00;
})
);
},
{
closed = 1;
nodes = (
(404,467,o),
(455,402,o),
(455,265,cs),
(455,128,o),
(399,63,o),
(321,63,cs),
(271,63,o),
(226,81,o),
(196,105,c),
(196,408,l),
(233,444,o),
(278,467,o),
(331,467,cs)
);
}
);
width = 625;
}
);
unicode = 254;
},
{
glyphname = q;
layers = (
{
layerId = master01;
shapes = (
{
closed = 1;
nodes = (
(341,-15,o),
(392,15,o),
(429,52,c),
(429,-235,l),
(525,-235,l),
(525,545,l),
(479,545,l),
(451,487,l),
(412,520,o),
(359,545,o),
(300,545,cs),
(171,545,o),
(70,450,o),
(70,265,cs),
(70,80,o),
(151,-15,o),
(273,-15,cs,{
name = hr00;
})
);
},
{
closed = 1;
nodes = (
(221,63,o),
(170,128,o),
(170,265,cs),
(170,402,o),
(226,467,o),
(304,467,cs),
(353,467,o),
(398,448,o),
(429,425,c),
(429,121,l),
(391,86,o),
(346,63,o),
(294,63,cs)
);
}
);
width = 625;
}
);
unicode = 113;
},
{
glyphname = r;
layers = (
{
layerId = master01;
shapes = (
{
closed = 1;
nodes = (
(100,0,l),
(196,0,l),
(196,403,l),
(231,439,o),
(282,461,o),
(344,462,c,{
name = hr01;
}),
(356,473,l),
(351,545,l),
(287,543,o),
(227,511,o),
(186,465,c),
(181,530,l,{
name = hr02;
}),
(100,530,l)
);
}
);
width = 365;
}
);
unicode = 114;
},
{
glyphname = s;
layers = (
{
layerId = master01;
shapes = (
{
closed = 1;
nodes = (
(307,472,o),
(340,438,o),
(355,384,c),
(438,412,l),
(412,507,o),
(349,545,o),
(258,545,cs),
(119,545,o),
(74,462,o),
(74,401,cs),
(74,213,o),
(343,229,o),
(343,126,cs),
(343,80,o),
(302,58,o),
(257,58,cs),
(204,58,o),
(152,78,o),
(139,166,c),
(56,138,l),
(78,43,o),
(136,-15,o),
(250,-15,cs),
(365,-15,o),
(435,44,o),
(435,133,cs),
(435,312,o),
(166,291,o),
(166,403,cs),
(166,449,o),
(205,472,o),
(256,472,cs,{
name = hr00;
})
);
}
);
width = 486;
}
);
unicode = 115;
},
{
glyphname = germandbls;
layers = (
{
layerId = master01;
shapes = (
{
closed = 1;
nodes = (
(131,460,l),
(131,0,l),
(227,0,l),
(227,559,ls),
(227,661,o),
(278,687,o),
(336,687,cs),
(399,687,o),
(444,644,o),
(444,587,cs),
(444,484,o),
(306,485,o),
(306,378,cs),
(306,239,o),
(534,309,o),
(534,155,cs,{
name = hr01;
}),
(534,101,o),
(490,63,o),
(437,63,cs),
(373,63,o),
(349,100,o),
(339,146,c),
(257,118,l),
(279,23,o),
(342,-15,o),
(439,-15,cs),
(570,-15,o),
(634,82,o),
(634,163,cs),
(634,366,o),
(396,339,o),
(396,385,cs),
(396,431,o),
(539,460,o),
(539,591,cs,{
name = hr02;
}),
(539,674,o),
(493,765,o),
(329,765,cs),
(187,765,o),
(131,666,o),
(131,541,cs),
(131,530,l),
(55,530,l),
(55,460,l)
);
}
);
width = 664;
}
);
unicode = 223;
},
{
glyphname = t;
layers = (
{
layerId = master01;
shapes = (
{
closed = 1;
nodes = (
(131,460,l),
(131,124,ls),
(131,34,o),
(169,-15,o),
(239,-15,cs),
(283,-15,o),
(337,4,o),
(377,34,c),
(351,94,l),
(320,75,o),
(295,66,o),
(274,66,cs),
(242,66,o),
(227,82,o),
(227,114,cs),
(227,460,l),
(367,460,l),
(367,530,l),
(227,530,l),
(227,660,l),
(207,660,l),
(131,640,l),
(131,530,l),
(55,530,l),
(55,460,l,{
name = hr00;
})
);
}
);
width = 397;
}
);
unicode = 116;
},
{
glyphname = u;
layers = (
{
layerId = master01;
shapes = (
{
closed = 1;
nodes = (
(415,530,l),
(415,122,l),
(375,86,o),
(327,63,o),
(269,63,cs),
(210,63,o),
(186,99,o),
(186,170,cs),
(186,530,l),
(90,530,l),
(90,171,ls),
(90,50,o),
(136,-15,o),
(241,-15,cs),
(320,-15,o),
(380,21,o),
(421,61,c),
(429,2,o),
(464,-15,o),
(510,-15,cs),
(540,-15,o),
(566,-5,o),
(587,5,c),
(571,67,l),
(561,62,o),
(548,58,o),
(537,58,cs),
(522,58,o),
(511,64,o),
(511,85,cs),
(511,530,l,{
name = hr00;
})
);
}
);
width = 617;
}
);
unicode = 117;
},
{
glyphname = v;
layers = (
{
layerId = master01;
shapes = (
{
closed = 1;
nodes = (
(412,530,l),
(273,89,l),
(134,530,l),
(35,530,l),
(205,0,l),
(331,0,l),
(501,530,l,{
name = hr00;
})
);
}
);
width = 536;
}
);
unicode = 118;
},
{
glyphname = w;
layers = (
{
layerId = master01;
shapes = (
{
closed = 1;
nodes = (
(628,0,l),
(768,530,l),
(681,530,l),
(566,86,l),
(455,530,l),
(368,530,l),
(256,86,l),
(142,530,l),
(45,530,l),
(185,0,l),
(316,0,l),
(411,372,l),
(507,0,l,{
name = hr00;
})
);
}
);
width = 813;
}
);
unicode = 119;
},
{
glyphname = x;
layers = (
{
layerId = master01;
shapes = (
{
closed = 1;
nodes = (
(35,530,l),
(202,267,l),
(30,0,l),
(124,0,l),
(248,193,l),
(371,0,l),
(476,0,l),
(304,270,l),
(471,530,l),
(377,530,l),
(257,344,l),
(140,530,l,{
name = hr00;
})
);
}
);
width = 506;
}
);
unicode = 120;
},
{
glyphname = y;
layers = (
{
layerId = master01;
shapes = (
{
closed = 1;
nodes = (
(412,530,l),
(273,70,l),
(134,530,l),
(35,530,l),
(183,68,ls),
(201,13,o),
(211,-44,o),
(211,-80,cs),
(211,-131,o),
(183,-154,o),
(142,-154,cs),
(104,-154,o),
(76,-133,o),
(55,-112,c),
(8,-172,l),
(38,-202,o),
(91,-235,o),
(149,-235,cs),
(219,-235,o),
(267,-200,o),
(300,-96,cs),
(501,530,l,{
name = hr00;
})
);
}
);
width = 536;
}
);
unicode = 121;
},
{
glyphname = z;
layers = (
{
layerId = master01;
shapes = (
{
closed = 1;
nodes = (
(412,0,l),
(412,75,l),
(159,75,l),
(417,480,l),
(417,530,l),
(65,530,l),
(65,455,l),
(303,455,l),
(45,50,l),
(45,0,l,{
name = hr00;
})
);
}
);
width = 462;
}
);
unicode = 122;
},
{
glyphname = ordfeminine;
layers = (
{
layerId = master01;
shapes = (
{
closed = 1;
nodes = (
(223,657,o),
(244,640,o),
(244,604,cs),
(244,567,l),
(228,570,o),
(210,572,o),
(191,572,cs),
(110,572,o),
(61,534,o),
(61,468,cs),
(61,414,o),
(101,372,o),
(153,372,cs),
(192,372,o),
(229,394,o),
(249,420,c),
(258,383,o),
(278,372,o),
(305,372,cs),
(323,372,o),
(342,380,o),
(358,388,c),
(345,431,l),
(338,428,o),
(332,426,o),
(327,426,cs),
(317,426,o),
(312,433,o),
(312,457,cs),
(312,577,ls),
(312,673,o),
(277,715,o),
(191,715,cs),
(133,715,o),
(90,689,o),
(71,623,c),
(131,606,l),
(141,639,o),
(163,657,o),
(192,657,cs,{
name = hr00;
})
);
},
{
closed = 1;
nodes = (
(130,510,o),
(162,522,o),
(197,522,cs),
(213,522,o),
(230,520,o),
(244,516,c),
(244,466,l),
(226,444,o),
(196,430,o),
(171,430,cs),
(149,430,o),
(130,442,o),
(130,470,cs)
);
}
);
width = 400;
}
);
unicode = 170;
},
{
glyphname = ordmasculine;
layers = (
{
layerId = master01;
shapes = (
{
closed = 1;
nodes = (
(65,430,o),
(129,372,o),
(214,372,cs),
(298,372,o),
(363,430,o),
(363,543,cs),
(363,657,o),
(298,715,o),
(214,715,cs),
(129,715,o),
(65,657,o),
(65,543,cs,{
name = hr00;
})
);
},
{
closed = 1;
nodes = (
(135,620,o),
(167,657,o),
(214,657,cs),
(259,657,o),
(292,620,o),
(292,543,cs),
(292,467,o),
(259,430,o),
(214,430,cs),
(167,430,o),
(135,467,o),
(135,543,cs)
);
}
);
width = 428;
}
);
unicode = 186;
},
{
glyphname = pi;
layers = (
{
layerId = master01;
shapes = (
{
closed = 1;
nodes = (
(134,455,l),
(100,0,l),
(193,0,l),
(227,455,l),
(400,455,l),
(400,88,ls),
(400,7,o),
(443,-15,o),
(495,-15,cs,{
name = hr01;
}),
(525,-15,o),
(551,-5,o),
(572,5,c),
(556,67,l),
(546,62,o),
(531,58,o),
(520,58,cs),
(505,58,o),
(496,64,o),
(496,85,cs),
(496,455,l),
(566,455,l),
(566,530,l),
(61,530,l),
(61,455,l)
);
}
);
width = 627;
}
);
unicode = 960;
},
{
glyphname = zero;
layers = (
{
layerId = master01;
shapes = (
{
closed = 1;
nodes = (
(60,102,o),
(166,-15,o),
(311,-15,cs),
(454,-15,o),
(563,102,o),
(563,331,cs),
(563,558,o),
(454,675,o),
(311,675,cs),
(166,675,o),
(60,558,o),
(60,331,cs,{
name = hr00;
})
);
},
{
closed = 1;
nodes = (
(157,511,o),
(221,597,o),
(311,597,cs),
(402,597,o),
(466,511,o),
(466,331,cs),
(466,149,o),
(402,63,o),
(311,63,cs),
(221,63,o),
(157,149,o),
(157,331,cs)
);
}
);
width = 623;
}
);
unicode = 48;
},
{
glyphname = one;
layers = (
{
layerId = master01;
shapes = (
{
closed = 1;
nodes = (
(217,605,o),
(140,548,o),
(70,527,c),
(99,447,l),
(148,462,o),
(186,483,o),
(215,511,c),
(215,78,l),
(105,78,l),
(105,0,l),
(421,0,l),
(421,78,l),
(311,78,l),
(311,660,l),
(235,660,l,{
name = hr00;
})
);
}
);
width = 481;
}
);
unicode = 49;
},
{
glyphname = two;
layers = (
{
layerId = master01;
shapes = (
{
closed = 1;
nodes = (
(498,78,l),
(178,78,l),
(233,213,o),
(492,307,o),
(492,501,c),
(489,584,o),
(439,675,o),
(275,675,cs),
(162,675,o),
(93,601,o),
(72,489,c),
(159,468,l),
(176,562,o),
(214,598,o),
(285,598,cs),
(349,598,o),
(397,552,o),
(397,493,cs),
(397,331,o),
(75,234,o),
(75,40,cs),
(75,0,l),
(498,0,l,{
name = hr00;
})
);
}
);
width = 570;
}
);
unicode = 50;
},
{
glyphname = three;
layers = (
{
layerId = master01;
shapes = (
{
closed = 1;
nodes = (
(467,584,o),
(421,675,o),
(257,675,cs),
(155,675,o),
(80,605,o),
(57,499,c),
(143,478,l),
(161,565,o),
(204,598,o),
(264,598,cs),
(327,598,o),
(372,554,o),
(372,497,cs),
(372,441,o),
(337,361,o),
(183,357,cs),
(171,357,l),
(171,288,l),
(194,292,o),
(216,294,o),
(235,294,cs),
(346,294,o),
(388,236,o),
(388,169,cs,{
name = hr01;
}),
(388,101,o),
(338,63,o),
(256,63,cs),
(205,63,o),
(149,92,o),
(134,146,c),
(51,118,l),
(80,23,o),
(168,-15,o),
(258,-15,cs),
(414,-15,o),
(488,82,o),
(488,174,cs),
(488,243,o),
(446,315,o),
(355,344,c),
(423,381,o),
(467,439,o),
(467,501,cs)
);
}
);
width = 553;
}
);
unicode = 51;
},
{
glyphname = four;
layers = (
{
layerId = master01;
shapes = (
{
closed = 1;
nodes = (
(10,141,l),
(322,141,l),
(322,0,l),
(418,0,l),
(418,141,l),
(500,141,l),
(500,219,l),
(418,219,l),
(418,660,l),
(283,660,l),
(10,185,l,{
name = hr00;
})
);
},
{
closed = 1;
nodes = (
(322,572,l),
(322,219,l),
(119,219,l)
);
}
);
width = 530;
}
);
unicode = 52;
},
{
glyphname = five;
layers = (
{
layerId = master01;
shapes = (
{
closed = 1;
nodes = (
(95,337,l),
(125,307,l),
(167,318,o),
(204,324,o),
(235,324,cs),
(346,324,o),
(388,259,o),
(388,183,cs),
(388,106,o),
(338,63,o),
(256,63,cs),
(205,63,o),
(149,92,o),
(134,146,c),
(51,118,l),
(80,23,o),
(168,-15,o),
(258,-15,cs),
(414,-15,o),
(488,87,o),
(488,188,cs),
(488,294,o),
(419,397,o),
(262,397,cs),
(237,397,o),
(210,394,o),
(181,388,c),
(187,582,l),
(447,582,l),
(447,660,l),
(102,660,l,{
name = hr00;
})
);
}
);
width = 553;
}
);
unicode = 53;
},
{
glyphname = six;
layers = (
{
layerId = master01;
shapes = (
{
closed = 1;
nodes = (
(366,597,o),
(404,574,o),
(425,529,c),
(506,570,l),
(471,646,o),
(409,675,o),
(324,675,cs),
(174,675,o),
(60,551,o),
(60,310,cs),
(60,95,o),
(147,-15,o),
(290,-15,cs),
(442,-15,o),
(521,101,o),
(521,211,cs),
(521,335,o),
(419,404,o),
(318,404,cs),
(257,404,o),
(196,380,o),
(157,327,c),
(160,511,o),
(229,597,o),
(323,597,cs,{
name = hr00;
})
);
},
{
closed = 1;
nodes = (
(172,272,o),
(229,332,o),
(300,332,cs),
(371,332,o),
(429,272,o),
(429,197,cs),
(429,122,o),
(371,63,o),
(300,63,cs),
(229,63,o),
(172,122,o),
(172,197,cs)
);
}
);
width = 570;
}
);
unicode = 54;
},
{
glyphname = seven;
layers = (
{
layerId = master01;
shapes = (
{
closed = 1;
nodes = (
(10,660,l),
(10,582,l),
(332,582,l),
(77,0,l),
(172,0,l),
(440,616,l),
(440,660,l,{
name = hr00;
})
);
}
);
width = 450;
}
);
unicode = 55;
},
{
glyphname = eight;
layers = (
{
layerId = master01;
shapes = (
{
closed = 1;
nodes = (
(88,452,o),
(105,387,o),
(168,347,c),
(87,302,o),
(73,232,o),
(73,182,cs,{
name = hr01;
}),
(73,42,o),
(181,-15,o),
(297,-15,cs),
(413,-15,o),
(521,42,o),
(521,182,cs),
(521,233,o),
(507,300,o),
(426,345,c),
(488,385,o),
(506,452,o),
(506,490,cs,{
name = hr02;
}),
(506,624,o),
(401,675,o),
(297,675,cs),
(192,675,o),
(88,624,o),
(88,491,cs)
);
},
{
closed = 1;
nodes = (
(172,252,o),
(226,307,o),
(296,307,cs),
(366,307,o),
(421,252,o),
(421,182,cs),
(421,112,o),
(366,58,o),
(296,58,cs),
(226,58,o),
(172,112,o),
(172,182,c)
);
},
{
closed = 1;
nodes = (
(182,557,o),
(232,608,o),
(296,608,cs),
(360,608,o),
(411,557,o),
(411,493,cs),
(411,429,o),
(360,379,o),
(296,379,cs),
(232,379,o),
(182,429,o),
(182,493,cs)
);
}
);
width = 594;
}
);
unicode = 56;
},
{
glyphname = nine;
layers = (
{
layerId = master01;
shapes = (
{
closed = 1;
nodes = (
(215,63,o),
(172,86,o),
(151,131,c),
(70,90,l),
(105,14,o),
(172,-15,o),
(257,-15,cs),
(407,-15,o),
(521,109,o),
(521,350,cs),
(521,565,o),
(434,675,o),
(291,675,cs),
(139,675,o),
(63,559,o),
(63,449,cs),
(63,352,o),
(126,248,o),
(260,248,cs),
(330,248,o),
(389,271,o),
(427,324,c),
(421,146,o),
(350,63,o),
(258,63,cs,{
name = hr00;
})
);
},
{
closed = 1;
nodes = (
(156,535,o),
(213,597,o),
(285,597,cs),
(357,597,o),
(415,535,o),
(415,458,cs),
(415,381,o),
(357,320,o),
(285,320,cs),
(213,320,o),
(156,381,o),
(156,458,cs)
);
}
);
width = 570;
}
);
unicode = 57;
},
{
glyphname = fraction;
layers = (
{
layerId = master01;
shapes = (
{
closed = 1;
nodes = (
(232,675,l),
(-10,-15,l),
(69,-15,l),
(313,675,l,{
name = hr00;
})
);
}
);
width = 303;
}
);
unicode = 8260;
},
{
glyphname = zeroinferior;
layers = (
{
layerId = master01;
shapes = (
{
closed = 1;
nodes = (
(61,-138,o),
(127,-209,o),
(217,-209,cs),
(304,-209,o),
(373,-138,o),
(373,3,cs),
(373,141,o),
(304,212,o),
(217,212,cs),
(127,212,o),
(61,141,o),
(61,3,cs,{
name = hr00;
})
);
},
{
closed = 1;
nodes = (
(135,102,o),
(169,149,o),
(217,149,cs),
(264,149,o),
(299,102,o),
(299,3,cs),
(299,-99,o),
(264,-145,o),
(217,-145,cs),
(169,-145,o),
(135,-99,o),
(135,3,cs)
);
}
);
width = 434;
}
);
unicode = 8320;
},
{
glyphname = oneinferior;
layers = (
{
layerId = master01;
shapes = (
{
closed = 1;
nodes = (
(152,170,o),
(104,135,o),
(61,123,c),
(84,58,l),
(111,67,o),
(131,77,o),
(149,90,c),
(149,-200,l),
(223,-200,l),
(223,204,l),
(162,204,l,{
name = hr00;
})
);
}
);
width = 349;
}
);
unicode = 8321;
},
{
glyphname = twoinferior;
layers = (
{
layerId = master01;
shapes = (
{
closed = 1;
nodes = (
(147,133,o),
(168,150,o),
(199,150,cs),
(231,150,o),
(255,127,o),
(255,97,cs),
(255,8,o),
(67,-49,o),
(67,-168,cs),
(67,-200,l),
(332,-200,l),
(332,-137,l),
(150,-137,l),
(197,-62,o),
(329,-11,o),
(329,102,cs),
(329,154,o),
(294,212,o),
(193,212,cs),
(129,212,o),
(87,173,o),
(68,110,c),
(136,92,l,{
name = hr00;
})
);
}
);
width = 402;
}
);
unicode = 8322;
},
{
glyphname = threeinferior;
layers = (
{
layerId = master01;
shapes = (
{
closed = 1;
nodes = (
(139,133,o),
(159,150,o),
(186,150,cs),
(218,150,o),
(241,128,o),
(241,99,cs),
(241,70,o),
(222,26,o),
(139,26,cs),
(124,26,l),
(124,-28,l),
(169,-28,ls),
(228,-28,o),
(250,-58,o),
(250,-93,cs),
(250,-126,o),
(224,-145,o),
(182,-145,cs),
(155,-145,o),
(125,-128,o),
(116,-94,c),
(51,-116,l),
(70,-182,o),
(127,-209,o),
(183,-209,cs),
(280,-209,o),
(326,-147,o),
(326,-90,cs),
(326,-50,o),
(305,-9,o),
(260,13,c),
(292,36,o),
(314,67,o),
(314,102,cs,{
name = hr01;
}),
(314,154,o),
(285,212,o),
(182,212,cs),
(124,212,o),
(79,173,o),
(59,111,c),
(127,92,l)
);
}
);
width = 392;
}
);
unicode = 8323;
},
{
glyphname = fourinferior;
layers = (
{
layerId = master01;
shapes = (
{
closed = 1;
nodes = (
(35,-117,l),
(217,-117,l),
(217,-200,l),
(291,-200,l),
(291,-117,l),
(339,-117,l),
(339,-55,l),
(291,-55,l),
(291,204,l),
(199,204,l),
(35,-81,l,{
name = hr00;
})
);
},
{
closed = 1;
nodes = (
(155,4,o),
(185,54,o),
(217,110,c),
(217,-55,l),
(122,-55,l)
);
}
);
width = 396;
}
);
unicode = 8324;
},
{
glyphname = fiveinferior;
layers = (
{
layerId = master01;
shapes = (
{
closed = 1;
nodes = (
(79,3,l),
(103,-22,l),
(129,-14,o),
(152,-11,o),
(169,-11,cs),
(228,-11,o),
(250,-45,o),
(250,-84,cs),
(250,-123,o),
(224,-145,o),
(182,-145,cs),
(155,-145,o),
(125,-128,o),
(116,-94,c),
(51,-116,l),
(70,-182,o),
(127,-209,o),
(183,-209,cs),
(280,-209,o),
(326,-145,o),
(326,-81,cs),
(326,-15,o),
(283,50,o),
(185,50,cs),
(172,50,o),
(161,49,o),
(148,47,c),
(150,140,l),
(302,140,l),
(302,204,l),
(83,204,l,{
name = hr00;
})
);
}
);
width = 392;
}
);
unicode = 8325;
},
{
glyphname = sixinferior;
layers = (
{
layerId = master01;
shapes = (
{
closed = 1;
nodes = (
(244,149,o),
(263,134,o),
(277,106,c),
(340,138,l),
(315,192,o),
(275,212,o),
(221,212,cs),
(129,212,o),
(59,137,o),
(59,-10,cs),
(59,-142,o),
(112,-209,o),
(202,-209,cs),
(296,-209,o),
(346,-136,o),
(346,-67,cs),
(346,11,o),
(281,53,o),
(218,53,cs),
(187,53,o),
(158,45,o),
(134,23,c),
(141,105,o),
(175,149,o),
(221,149,cs,{
name = hr00;
})
);
},
{
closed = 1;
nodes = (
(141,-37,o),
(171,-6,o),
(208,-6,cs),
(245,-6,o),
(274,-37,o),
(274,-76,cs),
(274,-115,o),
(245,-145,o),
(208,-145,cs),
(171,-145,o),
(141,-115,o),
(141,-76,cs)
);
}
);
width = 402;
}
);
unicode = 8326;
},
{
glyphname = seveninferior;
layers = (
{
layerId = master01;
shapes = (
{
closed = 1;
nodes = (
(29,204,l),
(29,140,l),
(212,140,l),
(63,-200,l),
(138,-200,l),
(298,168,l),
(298,204,l,{
name = hr00;
})
);
}
);
width = 330;
}
);
unicode = 8327;
},
{
glyphname = eightinferior;
layers = (
{
layerId = master01;
shapes = (
{
closed = 1;
nodes = (
(75,74,o),
(84,37,o),
(114,12,c),
(74,-17,o),
(66,-57,o),
(66,-85,cs),
(66,-173,o),
(134,-209,o),
(206,-209,cs),
(279,-209,o),
(346,-173,o),
(346,-85,cs),
(346,-56,o),
(337,-18,o),
(297,11,c),
(329,36,o),
(337,73,o),
(337,95,cs),
(337,179,o),
(271,212,o),
(206,212,cs),
(139,212,o),
(75,179,o),
(75,96,cs,{
name = hr00;
})
);
},
{
closed = 1;
nodes = (
(141,-49,o),
(170,-21,o),
(206,-21,cs),
(242,-21,o),
(270,-49,o),
(270,-85,cs),
(270,-121,o),
(242,-148,o),
(206,-148,cs),
(170,-148,o),
(141,-121,o),
(141,-85,cs)
);
},
{
closed = 1;
nodes = (
(147,130,o),
(173,156,o),
(206,156,cs),
(238,156,o),
(264,130,o),
(264,97,cs),
(264,64,o),
(238,39,o),
(206,39,cs),
(173,39,o),
(147,64,o),
(147,97,cs)
);
}
);
width = 416;
}
);
unicode = 8328;
},
{
glyphname = nineinferior;
layers = (
{
layerId = master01;
shapes = (
{
closed = 1;
nodes = (
(161,-145,o),
(137,-131,o),
(125,-103,c),
(61,-135,l),
(87,-188,o),
(129,-209,o),
(182,-209,cs),
(275,-209,o),
(346,-134,o),
(346,14,cs),
(346,145,o),
(292,212,o),
(203,212,cs),
(107,212,o),
(60,139,o),
(60,71,cs),
(60,11,o),
(100,-55,o),
(184,-55,cs),
(217,-55,o),
(250,-44,o),
(272,-25,c),
(264,-107,o),
(228,-145,o),
(183,-145,cs,{
name = hr00;
})
);
},
{
closed = 1;
nodes = (
(133,117,o),
(162,149,o),
(199,149,cs),
(236,149,o),
(266,117,o),
(266,77,cs),
(266,37,o),
(236,5,o),
(199,5,cs),
(162,5,o),
(133,37,o),
(133,77,cs)
);
}
);
width = 402;
}
);
unicode = 8329;
},
{
glyphname = period;
layers = (
{
layerId = master01;
shapes = (
{
closed = 1;
nodes = (
(50,6,o),
(78,-15,o),
(116,-15,cs),
(155,-15,o),
(183,6,o),
(183,53,cs),
(183,100,o),
(155,121,o),
(116,121,cs),
(78,121,o),
(50,100,o),
(50,53,cs,{
name = hr00;
})
);
}
);
width = 233;
}
);
unicode = 46;
},
{
glyphname = comma;
layers = (
{
layerId = master01;
shapes = (
{
closed = 1;
nodes = (
(82,-75,o),
(65,-111,o),
(47,-138,c),
(92,-168,l),
(138,-115,o),
(183,-17,o),
(183,53,cs),
(183,100,o),
(155,121,o),
(116,121,cs),
(78,121,o),
(50,100,o),
(50,53,cs),
(50,8,o),
(82,1,o),
(82,-43,cs,{
name = hr00;
})
);
}
);
width = 233;
}
);
unicode = 44;
},
{
glyphname = ellipsis;
layers = (
{
layerId = master01;
shapes = (
{
closed = 1;
nodes = (
(50,6,o),
(78,-15,o),
(116,-15,cs),
(155,-15,o),
(183,6,o),
(183,53,cs),
(183,100,o),
(155,121,o),
(116,121,cs),
(78,121,o),
(50,100,o),
(50,53,cs,{
name = hr00;
})
);
},
{
closed = 1;
nodes = (
(283,6,o),
(311,-15,o),
(349,-15,cs),
(388,-15,o),
(416,6,o),
(416,53,cs),
(416,100,o),
(388,121,o),
(349,121,cs),
(311,121,o),
(283,100,o),
(283,53,cs)
);
},
{
closed = 1;
nodes = (
(516,6,o),
(544,-15,o),
(582,-15,cs),
(621,-15,o),
(649,6,o),
(649,53,cs),
(649,100,o),
(621,121,o),
(582,121,cs),
(544,121,o),
(516,100,o),
(516,53,cs)
);
}
);
width = 699;
}
);
unicode = 8230;
},
{
glyphname = exclam;
layers = (
{
layerId = master01;
shapes = (
{
closed = 1;
nodes = (
(100,6,o),
(128,-15,o),
(166,-15,cs),
(205,-15,o),
(233,6,o),
(233,53,cs),
(233,100,o),
(205,121,o),
(166,121,cs),
(128,121,o),
(100,100,o),
(100,53,cs,{
name = hr00;
})
);
},
{
closed = 1;
nodes = (
(119,750,l),
(119,430,l),
(134,218,l),
(198,218,l),
(213,430,l),
(214,750,l)
);
}
);
width = 333;
}
);
unicode = 33;
},
{
glyphname = question;
layers = (
{
layerId = master01;
shapes = (
{
closed = 1;
nodes = (
(157,6,o),
(185,-15,o),
(223,-15,cs),
(262,-15,o),
(290,6,o),
(290,53,cs),
(290,100,o),
(262,121,o),
(223,121,cs),
(185,121,o),
(157,100,o),
(157,53,cs,{
name = hr00;
})
);
},
{
closed = 1;
nodes = (
(430,674,o),
(383,765,o),
(238,765,cs),
(128,765,o),
(60,691,o),
(40,594,c),
(127,573,l),
(142,652,o),
(175,688,o),
(237,688,cs),
(293,688,o),
(335,642,o),
(335,583,cs),
(335,462,o),
(190,414,o),
(190,242,cs),
(190,234,o),
(190,226,o),
(191,218,c),
(255,218,l),
(255,351,o),
(430,423,o),
(430,591,cs)
);
}
);
width = 490;
}
);
unicode = 63;
},
{
glyphname = bullet;
layers = (
{
layerId = master01;
shapes = (
{
closed = 1;
nodes = (
(100,235,o),
(140,206,o),
(193,206,cs),
(247,206,o),
(287,235,o),
(287,301,cs),
(287,367,o),
(247,396,o),
(193,396,cs),
(140,396,o),
(100,367,o),
(100,301,cs,{
name = hr00;
})
);
}
);
width = 387;
}
);
unicode = 8226;
},
{
glyphname = asterisk;
layers = (
{
layerId = master01;
shapes = (
{
closed = 1;
nodes = (
(214,750,l),
(227,599,l),
(290,599,l),
(304,750,l,{
name = hr00;
})
);
},
{
closed = 1;
nodes = (
(50,568,l),
(201,533,l),
(219,593,l),
(79,654,l)
);
},
{
closed = 1;
nodes = (
(175,355,l),
(254,487,l),
(204,522,l),
(102,408,l)
);
},
{
closed = 1;
nodes = (
(415,408,l),
(315,523,l),
(263,487,l),
(343,355,l)
);
},
{
closed = 1;
nodes = (
(439,654,l),
(298,593,l),
(317,533,l),
(467,568,l)
);
}
);
width = 517;
}
);
unicode = 42;
},
{
glyphname = numbersign;
layers = (
{
layerId = master01;
shapes = (
{
closed = 1;
nodes = (
(171,390,l),
(146,270,l),
(47,270,l),
(30,190,l),
(130,190,l),
(88,-15,l),
(167,-15,l),
(209,190,l),
(370,190,l),
(328,-15,l),
(407,-15,l),
(449,190,l),
(549,190,l),
(566,270,l),
(466,270,l),
(491,390,l),
(591,390,l),
(608,470,l),
(507,470,l),
(550,675,l),
(469,675,l),
(427,470,l),
(267,470,l),
(310,675,l),
(229,675,l),
(187,470,l),
(87,470,l),
(70,390,l,{
name = hr00;
})
);
},
{
closed = 1;
nodes = (
(411,390,l),
(386,270,l),
(226,270,l),
(251,390,l)
);
}
);
width = 638;
}
);
unicode = 35;
},
{
glyphname = slash;
layers = (
{
layerId = master01;
shapes = (
{
closed = 1;
nodes = (
(306,715,l),
(0,-15,l),
(75,-15,l),
(382,715,l,{
name = hr00;
})
);
}
);
width = 382;
}
);
unicode = 47;
},
{
glyphname = backslash;
layers = (
{
layerId = master01;
shapes = (
{
closed = 1;
nodes = (
(76,715,l),
(382,-15,l),
(307,-15,l),
(0,715,l,{
name = hr00;
})
);
}
);
width = 382;
}
);
unicode = 92;
},
{
glyphname = hyphen;
layers = (
{
layerId = master01;
shapes = (
{
closed = 1;
nodes = (
(367,266,l),
(367,336,l),
(55,336,l),
(55,266,l,{
name = hr00;
})
);
}
);
width = 422;
}
);
unicode = 45;
},
{
glyphname = endash;
layers = (
{
layerId = master01;
shapes = (
{
closed = 1;
nodes = (
(641,266,l),
(641,336,l),
(55,336,l),
(55,266,l,{
name = hr00;
})
);
}
);
width = 696;
}
);
unicode = 8211;
},
{
glyphname = emdash;
layers = (
{
layerId = master01;
shapes = (
{
closed = 1;
nodes = (
(763,266,l),
(763,336,l),
(55,336,l),
(55,266,l,{
name = hr00;
})
);
}
);
width = 818;
}
);
unicode = 8212;
},
{
glyphname = underscore;
layers = (
{
layerId = master01;
shapes = (
{
closed = 1;
nodes = (
(450,-85,l),
(450,-15,l),
(20,-15,l),
(20,-85,l,{
name = hr00;
})
);
}
);
width = 470;
}
);
unicode = 95;
},
{
glyphname = parenleft;
layers = (
{
layerId = master01;
shapes = (
{
closed = 1;
nodes = (
(189,-106,o),
(90,36,o),
(90,331,cs),
(90,623,o),
(189,765,o),
(321,765,c),
(321,677,l),
(244,677,o),
(190,579,o),
(190,331,cs),
(190,81,o),
(244,-18,o),
(321,-18,c),
(321,-106,l,{
name = hr00;
})
);
}
);
width = 371;
}
);
unicode = 40;
},
{
glyphname = braceleft;
layers = (
{
layerId = master01;
shapes = (
{
closed = 1;
nodes = (
(205,334,o),
(216,372,o),
(216,409,cs),
(216,500,o),
(199,601,o),
(199,643,cs,{
name = hr01;
}),
(199,677,o),
(215,690,o),
(253,690,cs),
(272,690,o),
(290,687,o),
(320,682,c),
(330,750,l),
(291,761,o),
(269,764,o),
(224,764,cs),
(155,764,o),
(104,741,o),
(104,660,cs),
(104,629,o),
(120,497,o),
(120,409,cs,{
name = hr02;
}),
(120,375,o),
(98,359,o),
(46,359,c),
(46,299,l),
(98,299,o),
(120,283,o),
(120,249,cs),
(120,161,o),
(104,29,o),
(104,-2,cs,{
name = hr03;
}),
(104,-83,o),
(155,-106,o),
(224,-106,cs),
(269,-106,o),
(291,-103,o),
(330,-92,c),
(320,-24,l),
(290,-29,o),
(272,-32,o),
(253,-32,cs),
(215,-32,o),
(199,-19,o),
(199,15,cs),
(199,57,o),
(216,158,o),
(216,249,cs,{
name = hr04;
}),
(216,286,o),
(205,324,o),
(151,324,c),
(151,334,l)
);
}
);
width = 360;
}
);
unicode = 123;
},
{
glyphname = bracketleft;
layers = (
{
layerId = master01;
shapes = (
{
closed = 1;
nodes = (
(340,-22,l),
(196,-22,l),
(196,682,l),
(340,682,l),
(340,760,l),
(100,760,l),
(100,-100,l),
(340,-100,l,{
name = hr00;
})
);
}
);
width = 360;
}
);
unicode = 91;
},
{
glyphname = quotedblleft;
layers = (
{
layerId = master01;
shapes = (
{
closed = 1;
nodes = (
(151,711,o),
(168,747,o),
(186,774,c),
(141,804,l),
(95,751,o),
(50,653,o),
(50,583,cs),
(50,536,o),
(78,515,o),
(117,515,cs),
(155,515,o),
(183,536,o),
(183,583,cs),
(183,628,o),
(151,635,o),
(151,679,cs,{
name = hr00;
})
);
},
{
closed = 1;
nodes = (
(351,711,o),
(368,747,o),
(386,774,c),
(341,804,l),
(295,751,o),
(250,653,o),
(250,583,cs),
(250,536,o),
(278,515,o),
(317,515,cs),
(355,515,o),
(383,536,o),
(383,583,cs),
(383,628,o),
(351,635,o),
(351,679,cs)
);
}
);
width = 436;
}
);
unicode = 8220;
},
{
glyphname = quoteleft;
layers = (
{
layerId = master01;
shapes = (
{
closed = 1;
nodes = (
(151,711,o),
(168,747,o),
(186,774,c),
(141,804,l),
(95,751,o),
(50,653,o),
(50,583,cs),
(50,536,o),
(78,515,o),
(117,515,cs),
(155,515,o),
(183,536,o),
(183,583,cs),
(183,628,o),
(151,635,o),
(151,679,cs,{
name = hr00;
})
);
}
);
width = 236;
}
);
unicode = 8216;
},
{
glyphname = guillemotleft;
layers = (
{
layerId = master01;
shapes = (
{
closed = 1;
nodes = (
(50,309,l),
(194,121,l),
(248,158,l),
(154,323,l),
(248,488,l),
(194,525,l),
(50,337,l,{
name = hr00;
})
);
},
{
closed = 1;
nodes = (
(257,309,l),
(401,121,l),
(455,158,l),
(361,323,l),
(455,488,l),
(401,525,l),
(257,337,l)
);
}
);
width = 505;
}
);
unicode = 171;
},
{
glyphname = guilsinglleft;
layers = (
{
layerId = master01;
shapes = (
{
closed = 1;
nodes = (
(50,309,l),
(194,121,l),
(248,158,l),
(154,323,l),
(248,488,l),
(194,525,l),
(50,337,l,{
name = hr00;
})
);
}
);
width = 298;
}
);
unicode = 8249;
},
{
glyphname = quotedbl;
layers = (
{
layerId = master01;
shapes = (
{
closed = 1;
nodes = (
(50,750,l),
(65,515,l),
(131,515,l),
(146,750,l,{
name = hr00;
})
);
},
{
closed = 1;
nodes = (
(220,750,l),
(235,515,l),
(301,515,l),
(316,750,l)
);
}
);
width = 366;
}
);
unicode = 34;
},
{
glyphname = quotesingle;
layers = (
{
layerId = master01;
shapes = (
{
closed = 1;
nodes = (
(50,750,l),
(65,515,l),
(131,515,l),
(146,750,l,{
name = hr00;
})
);
}
);
width = 196;
}
);
unicode = 39;
},
{
glyphname = florin;
layers = (
{
layerId = master01;
shapes = (
{
closed = 1;
nodes = (
(266,-217,o),
(310,-123,o),
(310,-25,cs),
(310,460,ls),
(310,551,o),
(343,591,o),
(397,591,cs),
(421,591,o),
(469,581,o),
(493,563,c),
(530,639,l),
(491,663,o),
(441,675,o),
(394,675,cs),
(286,675,o),
(214,593,o),
(214,466,cs),
(214,-25,ls),
(214,-113,o),
(179,-150,o),
(126,-155,c),
(136,-232,l,{
name = hr00;
})
);
},
{
pos = (38,0);
ref = barra;
}
);
width = 566;
}
);
unicode = 402;
},
{
glyphname = apple;
layers = (
{
layerId = master01;
shapes = (
{
closed = 1;
nodes = (
(579,-88,o),
(583,-88,o),
(586,-88,cs),
(594,-88,o),
(601,-89,o),
(609,-89,cs),
(635,-89,o),
(637,-70,o),
(654,-60,cs),
(669,-52,o),
(690,-51,o),
(703,-42,cs),
(716,-33,o),
(721,-11,o),
(733,1,cs),
(743,11,o),
(759,12,o),
(768,23,cs),
(779,36,o),
(778,60,o),
(786,74,cs),
(796,91,o),
(820,92,o),
(820,120,cs),
(820,130,o),
(818,141,o),
(818,152,cs),
(818,177,o),
(840,180,o),
(843,200,c),
(843,214,o),
(832,229,o),
(832,244,cs,{
name = hr01;
}),
(832,257,o),
(843,269,o),
(843,283,cs),
(843,305,o),
(819,319,o),
(819,344,cs),
(819,352,o),
(820,360,o),
(820,369,cs,{
name = hr02;
}),
(820,397,o),
(795,400,o),
(784,418,cs),
(778,428,o),
(783,450,o),
(777,460,cs),
(766,479,o),
(740,483,o),
(726,496,cs),
(714,508,o),
(716,526,o),
(703,535,cs),
(689,545,o),
(673,542,o),
(658,550,cs),
(639,560,o),
(637,586,o),
(610,586,cs),
(600,586,o),
(590,583,o),
(582,583,cs),
(558,583,o),
(551,608,o),
(525,608,cs,{
name = hr03;
}),
(511,608,o),
(494,596,o),
(480,596,cs),
(467,596,o),
(449,608,o),
(436,608,cs),
(414,608,o),
(406,585,o),
(381,585,cs),
(372,585,o),
(363,587,o),
(355,587,cs),
(330,586,o),
(323,558,o),
(306,549,cs),
(290,541,o),
(268,543,o),
(255,532,cs),
(244,522,o),
(240,501,o),
(230,491,cs),
(219,480,o),
(198,480,o),
(190,467,cs),
(183,456,o),
(186,435,o),
(179,424,cs),
(169,407,o),
(144,401,o),
(144,376,cs),
(144,368,o),
(145,359,o),
(145,351,cs),
(145,332,o),
(120,311,o),
(120,290,cs,{
name = hr04;
}),
(120,275,o),
(132,265,o),
(132,248,cs,{
name = hr05;
}),
(132,233,o),
(120,218,o),
(120,204,cs,{
name = hr06;
}),
(120,183,o),
(145,168,o),
(145,149,cs),
(145,141,o),
(142,133,o),
(142,124,cs),
(142,98,o),
(168,87,o),
(176,75,cs),
(187,57,o),
(180,46,o),
(191,28,cs),
(201,12,o),
(217,15,o),
(230,4,cs),
(243,-7,o),
(242,-31,o),
(260,-42,cs),
(276,-52,o),
(283,-43,o),
(306,-55,cs),
(319,-62,o),
(331,-91,o),
(357,-91,cs),
(364,-91,o),
(373,-89,o),
(381,-89,cs),
(405,-89,o),
(416,-114,o),
(436,-114,cs,{
name = hr07;
}),
(451,-114,o),
(466,-102,o),
(482,-102,cs,{
name = hr08;
}),
(497,-102,o),
(513,-112,o),
(528,-112,cs),
(545,-112,o),
(558,-94,o),
(576,-89,cs)
);
},
{
closed = 1;
nodes = (
(537,0,o),
(527,-13,o),
(515,-13,cs,{
name = hr10;
}),
(504,-13,o),
(493,-6,o),
(482,-6,cs),
(470,-6,o),
(458,-15,o),
(446,-15,c,{
name = hr11;
}),
(432,-13,o),
(425,3,o),
(406,3,cs,{
name = hr12;
}),
(401,3,o),
(396,2,o),
(391,2,cs),
(372,2,o),
(365,23,o),
(354,28,cs),
(337,37,o),
(332,29,o),
(321,37,cs),
(308,45,o),
(309,63,o),
(299,71,cs),
(290,79,o),
(278,77,o),
(271,88,cs),
(263,101,o),
(268,110,o),
(260,123,cs),
(255,132,o),
(235,139,o),
(235,158,cs),
(235,163,o),
(237,169,o),
(237,174,cs),
(237,189,o),
(220,200,o),
(220,215,cs,{
name = hr13;
}),
(220,226,o),
(228,237,o),
(228,248,cs),
(228,260,o),
(220,267,o),
(220,278,cs),
(220,294,o),
(237,308,o),
(237,324,cs),
(237,329,o),
(236,335,o),
(236,340,cs),
(236,359,o),
(255,363,o),
(262,376,cs),
(267,384,o),
(265,399,o),
(270,407,cs),
(277,416,o),
(291,416,o),
(299,424,cs),
(307,432,o),
(309,447,o),
(318,454,cs),
(327,462,o),
(343,460,o),
(354,466,cs),
(367,472,o),
(371,493,o),
(390,493,cs),
(396,493,o),
(401,492,o),
(407,492,cs),
(426,492,o),
(433,509,o),
(449,509,cs,{
name = hr14;
}),
(459,509,o),
(471,500,o),
(481,500,cs),
(491,500,o),
(503,509,o),
(514,509,cs),
(533,509,o),
(536,491,o),
(555,491,cs),
(561,491,o),
(568,493,o),
(575,493,cs,{
name = hr15;
}),
(595,493,o),
(596,474,o),
(609,467,cs),
(621,460,o),
(632,464,o),
(642,456,cs),
(652,449,o),
(650,436,o),
(659,428,cs),
(669,418,o),
(688,415,o),
(696,402,cs),
(700,394,o),
(697,379,o),
(701,371,cs),
(709,357,o),
(727,356,o),
(727,335,cs),
(727,329,o),
(726,323,o),
(726,318,cs),
(726,300,o),
(744,289,o),
(744,273,cs,{
name = hr16;
}),
(744,264,o),
(736,254,o),
(736,245,cs),
(736,234,o),
(744,223,o),
(744,213,c),
(741,199,o),
(726,196,o),
(726,177,cs),
(726,171,o),
(727,164,o),
(727,157,cs,{
name = hr17;
}),
(727,133,o),
(711,136,o),
(703,122,cs),
(697,111,o),
(697,94,o),
(690,84,cs),
(683,76,o),
(671,76,o),
(664,68,cs),
(656,60,o),
(652,45,o),
(642,38,cs),
(633,31,o),
(617,30,o),
(607,24,c),
(595,19,o),
(594,3,o),
(574,3,cs),
(569,3,o),
(564,4,o),
(559,4,cs),
(556,4,o),
(553,4,o),
(550,3,cs)
);
},
{
closed = 1;
nodes = (
(388,417,o),
(312,341,o),
(312,247,cs),
(312,153,o),
(388,77,o),
(482,77,cs),
(576,77,o),
(652,153,o),
(652,247,cs),
(652,341,o),
(576,417,o),
(482,417,cs)
);
},
{
closed = 1;
nodes = (
(524,117,l),
(439,117,l),
(439,292,l),
(386,292,l),
(386,360,l),
(577,360,l),
(577,292,l),
(524,292,l)
);
}
);
width = 963;
}
);
unicode = 63743;
},
{
glyphname = at;
layers = (
{
layerId = master01;
shapes = (
{
closed = 1;
nodes = (
(706,-15,o),
(687,52,o),
(687,141,cs),
(687,257,o),
(720,410,o),
(742,495,c),
(693,505,l),
(683,491,o),
(673,476,o),
(664,461,c),
(634,487,o),
(592,505,o),
(546,505,cs),
(426,505,o),
(323,404,o),
(323,208,cs),
(323,88,o),
(377,27,o),
(467,27,cs),
(529,27,o),
(575,59,o),
(612,125,c),
(612,-5,o),
(661,-85,o),
(756,-85,cs),
(885,-85,o),
(997,70,o),
(997,273,cs),
(997,576,o),
(792,731,o),
(539,731,cs),
(286,731,o),
(80,576,o),
(80,273,cs),
(80,-30,o),
(286,-186,o),
(539,-186,cs),
(561,-186,o),
(581,-185,o),
(602,-183,c),
(596,-106,l),
(578,-108,o),
(558,-109,o),
(539,-109,cs),
(334,-109,o),
(167,27,o),
(167,273,cs),
(167,519,o),
(334,654,o),
(539,654,cs),
(744,654,o),
(910,519,o),
(910,273,cs),
(910,133,o),
(841,-15,o),
(766,-15,cs,{
name = hr00;
})
);
},
{
closed = 1;
nodes = (
(442,98,o),
(417,136,o),
(417,217,cs),
(417,363,o),
(479,437,o),
(544,437,cs),
(582,437,o),
(614,421,o),
(635,403,c),
(615,160,o),
(536,98,o),
(488,98,cs)
);
}
);
width = 1077;
}
);
unicode = 64;
},
{
glyphname = ampersand;
layers = (
{
layerId = master01;
shapes = (
{
closed = 1;
nodes = (
(472,310,o),
(472,252,o),
(448,192,c),
(397,237,o),
(343,289,o),
(300,343,c),
(404,390,o),
(491,444,o),
(491,550,cs),
(491,659,o),
(403,715,o),
(312,715,cs),
(218,715,o),
(121,651,o),
(121,536,cs),
(121,484,o),
(142,428,o),
(176,374,c),
(102,337,o),
(40,287,o),
(40,179,cs,{
name = hr01;
}),
(40,76,o),
(106,-15,o),
(256,-15,cs),
(348,-15,o),
(417,19,o),
(465,71,c),
(527,22,o),
(573,-9,o),
(573,-9,c),
(625,55,l),
(625,55,o),
(575,88,o),
(511,139,c),
(537,192,o),
(550,253,o),
(550,314,c),
(472,314,l)
);
},
{
closed = 1;
nodes = (
(168,63,o),
(130,118,o),
(130,179,cs),
(130,248,o),
(171,282,o),
(222,308,c),
(275,239,o),
(343,175,o),
(404,122,c),
(372,88,o),
(325,63,o),
(256,63,cs)
);
},
{
closed = 1;
nodes = (
(211,601,o),
(262,637,o),
(312,637,cs),
(357,637,o),
(401,605,o),
(401,550,cs),
(401,474,o),
(345,450,o),
(253,409,c),
(227,453,o),
(211,496,o),
(211,536,cs,{
name = hr02;
})
);
}
);
width = 615;
}
);
unicode = 38;
},
{
glyphname = paragraph;
layers = (
{
layerId = master01;
shapes = (
{
closed = 1;
nodes = (
(431,-23,o),
(386,-117,o),
(256,-132,c),
(246,-55,l),
(299,-50,o),
(335,-13,o),
(335,75,cs),
(335,261,l),
(279,261,ls),
(119,261,o),
(40,352,o),
(40,480,cs),
(40,606,o),
(119,700,o),
(279,700,cs),
(431,700,l),
(431,75,ls,{
name = hr00;
})
);
},
{
closed = 1;
nodes = (
(335,331,l),
(335,630,l),
(279,630,l),
(279,331,l)
);
}
);
width = 531;
}
);
unicode = 182;
},
{
glyphname = section;
layers = (
{
layerId = master01;
shapes = (
{
closed = 1;
nodes = (
(218,-157,o),
(170,-118,o),
(149,-53,c),
(65,-83,l),
(95,-191,o),
(169,-235,o),
(279,-235,cs),
(455,-235,o),
(516,-126,o),
(516,-46,cs),
(516,10,o),
(491,48,o),
(454,78,c),
(500,116,o),
(518,169,o),
(518,213,cs),
(518,420,o),
(174,388,o),
(174,541,cs),
(174,601,o),
(222,637,o),
(289,637,cs),
(362,637,o),
(414,598,o),
(435,533,c),
(519,563,l),
(489,671,o),
(415,715,o),
(305,715,cs),
(134,715,o),
(78,610,o),
(78,534,cs),
(78,475,o),
(101,435,o),
(136,404,c),
(92,367,o),
(76,316,o),
(76,275,cs),
(76,50,o),
(419,89,o),
(419,-62,cs),
(419,-116,o),
(364,-157,o),
(291,-157,cs,{
name = hr00;
})
);
},
{
closed = 1;
nodes = (
(421,166,o),
(404,141,o),
(376,124,c),
(281,168,o),
(172,196,o),
(172,282,cs),
(172,314,o),
(185,340,o),
(208,356,c),
(305,308,o),
(421,284,o),
(421,197,cs)
);
}
);
width = 575;
}
);
unicode = 167;
},
{
glyphname = copyright;
layers = (
{
layerId = master01;
shapes = (
{
closed = 1;
nodes = (
(507,680,o),
(458,708,o),
(390,708,cs),
(290,708,o),
(213,633,o),
(213,486,cs),
(213,339,o),
(288,263,o),
(392,263,cs),
(448,263,o),
(498,291,o),
(532,325,c),
(494,371,l),
(471,348,o),
(434,327,o),
(394,327,cs),
(333,327,o),
(289,378,o),
(289,486,cs),
(289,595,o),
(333,644,o),
(392,644,cs),
(424,644,o),
(451,623,o),
(464,581,c),
(530,605,l,{
name = hr00;
})
);
},
{
closed = 1;
nodes = (
(60,268,o),
(208,156,o),
(390,156,cs),
(572,156,o),
(720,268,o),
(720,486,cs),
(720,704,o),
(572,816,o),
(390,816,cs),
(208,816,o),
(60,704,o),
(60,486,cs)
);
},
{
closed = 1;
nodes = (
(115,668,o),
(238,761,o),
(390,761,cs),
(542,761,o),
(665,668,o),
(665,486,cs),
(665,304,o),
(542,211,o),
(390,211,cs),
(238,211,o),
(115,304,o),
(115,486,cs)
);
}
);
width = 780;
}
);
unicode = 169;
},
{
glyphname = registered;
layers = (
{
layerId = master01;
shapes = (
{
closed = 1;
nodes = (
(60,268,o),
(208,156,o),
(390,156,cs),
(572,156,o),
(720,268,o),
(720,486,cs),
(720,704,o),
(572,816,o),
(390,816,cs),
(208,816,o),
(60,704,o),
(60,486,cs,{
name = hr00;
})
);
},
{
closed = 1;
nodes = (
(115,668,o),
(238,761,o),
(390,761,cs),
(542,761,o),
(665,668,o),
(665,486,cs),
(665,304,o),
(542,211,o),
(390,211,cs),
(238,211,o),
(115,304,o),
(115,486,cs)
);
},
{
closed = 1;
nodes = (
(564,272,l),
(486,436,ls),
(482,443,o),
(479,450,o),
(471,457,c),
(516,479,o),
(536,517,o),
(536,567,cs),
(536,641,o),
(486,699,o),
(387,699,cs),
(260,699,l),
(260,272,l),
(334,272,l),
(334,440,l),
(387,440,ls),
(401,440,o),
(409,434,o),
(416,418,cs),
(484,272,l)
);
},
{
closed = 1;
nodes = (
(448,636,o),
(464,602,o),
(464,569,cs),
(464,536,o),
(448,502,o),
(387,502,cs),
(334,502,l),
(334,636,l),
(387,636,ls)
);
}
);
width = 780;
}
);
unicode = 174;
},
{
glyphname = trademark;
layers = (
{
layerId = master01;
shapes = (
{
closed = 1;
nodes = (
(740,272,l),
(740,699,l),
(647,699,l),
(551,438,l),
(456,699,l),
(361,699,l),
(361,272,l),
(435,272,l),
(435,571,l),
(524,330,l),
(579,330,l),
(667,571,l),
(667,272,l,{
name = hr00;
})
);
},
{
closed = 1;
nodes = (
(29,636,l),
(136,636,l),
(136,272,l),
(210,272,l),
(210,636,l),
(317,636,l),
(317,699,l),
(29,699,l)
);
}
);
width = 835;
}
);
unicode = 8482;
},
{
glyphname = degree;
layers = (
{
layerId = master01;
shapes = (
{
closed = 1;
nodes = (
(50,467,o),
(114,417,o),
(199,417,cs),
(283,417,o),
(348,467,o),
(348,566,cs),
(348,665,o),
(283,715,o),
(199,715,cs),
(114,715,o),
(50,665,o),
(50,566,cs,{
name = hr00;
})
);
},
{
closed = 1;
nodes = (
(125,624,o),
(155,652,o),
(199,652,cs),
(241,652,o),
(272,624,o),
(272,566,cs),
(272,508,o),
(241,480,o),
(199,480,cs),
(155,480,o),
(125,508,o),
(125,566,cs)
);
}
);
width = 398;
}
);
unicode = 176;
},
{
glyphname = bar;
layers = (
{
layerId = master01;
shapes = (
{
closed = 1;
nodes = (
(200,800,l),
(200,-100,l),
(276,-100,l),
(276,800,l,{
name = hr00;
})
);
}
);
width = 476;
}
);
unicode = 124;
},
{
glyphname = brokenbar;
layers = (
{
layerId = master01;
shapes = (
{
closed = 1;
nodes = (
(150,800,l),
(150,470,l),
(226,470,l),
(226,800,l,{
name = hr00;
})
);
},
{
closed = 1;
nodes = (
(150,230,l),
(150,-100,l),
(226,-100,l),
(226,230,l)
);
}
);
width = 376;
}
);
unicode = 166;
},
{
glyphname = dagger;
layers = (
{
layerId = master01;
shapes = (
{
closed = 1;
nodes = (
(38,530,l),
(190,530,l),
(190,0,l),
(286,0,l),
(286,530,l),
(438,530,l),
(438,606,l),
(286,606,l),
(286,750,l),
(190,750,l),
(190,606,l),
(38,606,l,{
name = hr00;
})
);
}
);
width = 476;
}
);
unicode = 8224;
},
{
glyphname = uni2113;
layers = (
{
layerId = master01;
shapes = (
{
closed = 1;
nodes = (
(100,660,l),
(100,88,ls),
(100,7,o),
(143,-15,o),
(195,-15,cs),
(225,-15,o),
(251,-5,o),
(272,5,c),
(256,67,l),
(246,62,o),
(231,58,o),
(220,58,cs),
(205,58,o),
(196,64,o),
(196,85,cs),
(196,670,l,{
name = hr00;
})
);
}
);
width = 296;
}
);
unicode = 8467;
},
{
glyphname = daggerdbl;
layers = (
{
layerId = master01;
shapes = (
{
closed = 1;
nodes = (
(38,530,l),
(190,530,l),
(190,220,l),
(38,220,l),
(38,144,l),
(190,144,l),
(190,0,l),
(286,0,l),
(286,144,l),
(438,144,l),
(438,220,l),
(286,220,l),
(286,530,l),
(438,530,l),
(438,606,l),
(286,606,l),
(286,750,l),
(190,750,l),
(190,606,l),
(38,606,l,{
name = hr00;
})
);
}
);
width = 476;
}
);
unicode = 8225;
},
{
glyphname = estimated;
layers = (
{
layerId = master01;
shapes = (
{
closed = 1;
nodes = (
(157,78,l),
(198,39,o),
(247,19,o),
(302,19,cs),
(385,19,o),
(449,59,o),
(495,139,c),
(530,118,l),
(461,26,o),
(409,-17,o),
(302,-17,cs),
(138,-17,o),
(44,107,o),
(44,259,cs),
(44,422,o),
(142,535,o),
(302,535,cs),
(473,535,o),
(554,413,o),
(561,259,c),
(157,259,l,{
name = hr00;
})
);
},
{
closed = 1;
nodes = (
(448,440,l),
(406,480,o),
(357,500,o),
(301,500,cs),
(244,500,o),
(196,480,o),
(157,440,c),
(157,295,l),
(448,295,l)
);
}
);
width = 600;
}
);
unicode = 8494;
},
{
glyphname = Euro;
layers = (
{
layerId = master01;
shapes = (
{
closed = 1;
nodes = (
(62,384,l),
(60,367,o),
(60,349,o),
(60,331,cs),
(60,313,o),
(60,295,o),
(62,279,c),
(0,279,l),
(0,209,l),
(72,209,l),
(103,61,o),
(194,-15,o),
(311,-15,cs),
(426,-15,o),
(486,39,o),
(515,137,c),
(431,167,l),
(412,102,o),
(376,63,o),
(311,63,cs),
(244,63,o),
(192,111,o),
(169,209,c),
(370,209,l),
(370,279,l),
(159,279,l),
(157,295,o),
(157,312,o),
(157,331,cs),
(157,349,o),
(157,367,o),
(159,384,c),
(370,384,l),
(370,454,l),
(169,454,l),
(192,550,o),
(244,597,o),
(311,597,cs),
(376,597,o),
(412,558,o),
(431,493,c),
(515,523,l),
(486,621,o),
(426,675,o),
(311,675,cs),
(195,675,o),
(104,600,o),
(72,454,c),
(0,454,l),
(0,384,l,{
name = hr00;
})
);
}
);
width = 623;
}
);
unicode = 8364;
},
{
glyphname = cent;
layers = (
{
layerId = master01;
shapes = (
{
closed = 1;
nodes = (
(468,572,o),
(400,610,o),
(310,610,cs),
(174,610,o),
(70,515,o),
(70,330,cs),
(70,145,o),
(171,50,o),
(311,50,cs),
(388,50,o),
(457,90,o),
(498,137,c),
(455,189,l),
(425,160,o),
(374,128,o),
(315,128,cs),
(231,128,o),
(170,193,o),
(170,330,cs),
(170,467,o),
(230,532,o),
(312,532,cs),
(363,532,o),
(399,503,o),
(414,449,c),
(497,477,l,{
name = hr00;
})
);
},
{
pos = (68,-21);
ref = bar;
}
);
width = 528;
}
);
unicode = 162;
},
{
glyphname = currency;
layers = (
{
layerId = master01;
shapes = (
{
closed = 1;
nodes = (
(178,171,l),
(209,152,o),
(247,142,o),
(289,142,cs),
(330,142,o),
(368,152,o),
(399,171,c),
(498,72,l),
(548,122,l),
(448,220,l),
(467,249,o),
(478,286,o),
(478,331,cs),
(478,376,o),
(467,412,o),
(448,441,c),
(548,540,l),
(498,590,l),
(399,490,l),
(368,510,o),
(330,520,o),
(289,520,cs),
(247,520,o),
(209,510,o),
(178,491,c),
(80,590,l),
(30,540,l),
(129,442,l),
(110,413,o),
(100,376,o),
(100,331,cs),
(100,286,o),
(110,249,o),
(129,220,c),
(30,122,l),
(80,72,l,{
name = hr00;
})
);
},
{
closed = 1;
nodes = (
(187,410,o),
(228,448,o),
(289,448,cs),
(347,448,o),
(389,410,o),
(389,331,cs),
(389,252,o),
(347,213,o),
(289,213,cs),
(228,213,o),
(187,252,o),
(187,331,cs)
);
}
);
width = 578;
}
);
unicode = 164;
},
{
glyphname = dollar;
layers = (
{
layerId = master01;
shapes = (
{
closed = 1;
nodes = (
(416,103,o),
(363,63,o),
(289,63,cs),
(210,63,o),
(157,108,o),
(133,202,c),
(50,172,l),
(82,40,o),
(160,-15,o),
(278,-15,cs),
(453,-15,o),
(513,92,o),
(513,171,cs),
(513,380,o),
(166,348,o),
(166,501,cs),
(166,561,o),
(212,597,o),
(280,597,cs),
(353,597,o),
(405,558,o),
(427,493,c),
(511,523,l),
(480,631,o),
(405,675,o),
(295,675,cs),
(126,675,o),
(70,572,o),
(70,496,cs),
(70,269,o),
(416,308,o),
(416,157,cs,{
name = hr00;
})
);
},
{
pos = (48,-21);
ref = bar;
}
);
width = 566;
}
);
unicode = 36;
},
{
glyphname = franc;
layers = (
{
layerId = master01;
shapes = (
{
closed = 1;
nodes = (
(100,660,l),
(100,0,l),
(196,0,l),
(196,271,l),
(440,271,l),
(440,349,l),
(196,349,l),
(196,582,l),
(470,582,l),
(470,660,l,{
name = hr00;
})
);
},
{
closed = 1;
nodes = (
(361,96,l),
(361,166,l),
(49,166,l),
(49,96,l)
);
}
);
width = 490;
}
);
unicode = 8355;
},
{
glyphname = lira;
layers = (
{
layerId = master01;
shapes = (
{
closed = 1;
nodes = (
(516,0,l),
(516,78,l),
(199,78,l),
(218,116,o),
(227,158,o),
(227,212,cs),
(227,295,o),
(216,428,o),
(216,466,cs),
(216,561,o),
(257,597,o),
(317,597,cs),
(382,597,o),
(418,558,o),
(437,493,c),
(521,523,l),
(492,621,o),
(432,675,o),
(330,675,cs),
(172,675,o),
(120,572,o),
(120,466,cs),
(120,419,o),
(138,310,o),
(138,212,cs),
(138,147,o),
(126,88,o),
(86,44,c),
(86,0,l,{
name = hr00;
})
);
},
{
closed = 1;
nodes = (
(55,344,l),
(396,344,l),
(396,414,l),
(55,414,l)
);
},
{
closed = 1;
nodes = (
(396,239,l),
(55,239,l),
(55,169,l),
(396,169,l)
);
}
);
width = 566;
}
);
unicode = 8356;
},
{
glyphname = sterling;
layers = (
{
layerId = master01;
shapes = (
{
closed = 1;
nodes = (
(516,0,l),
(516,78,l),
(199,78,l),
(218,116,o),
(227,158,o),
(227,212,cs),
(227,295,o),
(216,428,o),
(216,466,cs),
(216,561,o),
(257,597,o),
(317,597,cs),
(382,597,o),
(418,558,o),
(437,493,c),
(521,523,l),
(492,621,o),
(432,675,o),
(330,675,cs),
(172,675,o),
(120,572,o),
(120,466,cs),
(120,419,o),
(138,310,o),
(138,212,cs),
(138,147,o),
(126,88,o),
(86,44,c),
(86,0,l,{
name = hr00;
})
);
},
{
closed = 1;
nodes = (
(395,266,l),
(395,336,l),
(55,336,l),
(55,266,l)
);
}
);
width = 566;
}
);
unicode = 163;
},
{
glyphname = yen;
layers = (
{
layerId = master01;
shapes = (
{
closed = 1;
nodes = (
(15,660,l),
(139,406,l),
(48,406,l),
(48,336,l),
(173,336,l),
(210,260,l),
(210,231,l),
(48,231,l),
(48,161,l),
(210,161,l),
(210,0,l),
(306,0,l),
(306,161,l),
(468,161,l),
(468,231,l),
(306,231,l),
(306,260,l),
(343,336,l),
(468,336,l),
(468,406,l),
(377,406,l),
(501,660,l),
(402,660,l),
(258,352,l),
(114,660,l,{
name = hr00;
})
);
}
);
width = 516;
}
);
unicode = 165;
},
{
glyphname = plus;
layers = (
{
layerId = master01;
shapes = (
{
closed = 1;
nodes = (
(231,290,l),
(231,139,l),
(311,139,l),
(311,290,l),
(462,290,l),
(462,370,l),
(311,370,l),
(311,521,l),
(231,521,l),
(231,370,l),
(80,370,l),
(80,290,l,{
name = hr00;
})
);
}
);
width = 542;
}
);
unicode = 43;
},
{
glyphname = minus;
layers = (
{
layerId = master01;
shapes = (
{
closed = 1;
nodes = (
(462,290,l),
(462,370,l),
(80,370,l),
(80,290,l,{
name = hr00;
})
);
}
);
width = 542;
}
);
unicode = 8722;
},
{
glyphname = multiply;
layers = (
{
layerId = master01;
shapes = (
{
closed = 1;
nodes = (
(271,273,l),
(399,145,l),
(456,202,l),
(328,330,l),
(456,458,l),
(399,515,l),
(271,387,l),
(143,515,l),
(86,458,l),
(214,330,l),
(86,202,l),
(143,145,l,{
name = hr00;
})
);
}
);
width = 542;
}
);
unicode = 215;
},
{
glyphname = equal;
layers = (
{
layerId = master01;
shapes = (
{
closed = 1;
nodes = (
(462,390,l),
(462,470,l),
(80,470,l),
(80,390,l,{
name = hr00;
})
);
},
{
closed = 1;
nodes = (
(462,190,l),
(462,270,l),
(80,270,l),
(80,190,l)
);
}
);
width = 542;
}
);
unicode = 61;
},
{
glyphname = greater;
layers = (
{
layerId = master01;
shapes = (
{
closed = 1;
nodes = (
(80,130,l),
(80,210,l),
(368,330,l),
(80,450,l),
(80,530,l),
(462,369,l),
(462,291,l,{
name = hr00;
})
);
}
);
width = 542;
}
);
unicode = 62;
},
{
glyphname = less;
layers = (
{
layerId = master01;
shapes = (
{
closed = 1;
nodes = (
(462,130,l),
(462,210,l),
(173,330,l),
(462,450,l),
(462,530,l),
(80,369,l),
(80,291,l,{
name = hr00;
})
);
}
);
width = 542;
}
);
unicode = 60;
},
{
glyphname = approxequal;
layers = (
{
layerId = master01;
shapes = (
{
closed = 1;
nodes = (
(105,369,o),
(137,359,o),
(169,359,cs),
(244,359,o),
(298,417,o),
(371,417,cs,{
name = hr01;
}),
(404,417,o),
(435,408,o),
(462,390,c),
(462,470,l),
(433,488,o),
(400,497,o),
(367,497,cs),
(296,497,o),
(235,441,o),
(167,441,cs,{
name = hr02;
}),
(135,441,o),
(105,450,o),
(80,470,c),
(80,390,l)
);
},
{
closed = 1;
nodes = (
(105,168,o),
(137,159,o),
(169,159,cs),
(245,159,o),
(296,219,o),
(370,219,cs,{
name = hr03;
}),
(404,219,o),
(436,209,o),
(462,190,c),
(462,270,l),
(434,290,o),
(401,299,o),
(367,299,cs),
(295,299,o),
(236,239,o),
(167,239,cs,{
name = hr04;
}),
(135,239,o),
(104,249,o),
(80,270,c),
(80,190,l)
);
}
);
width = 542;
}
);
unicode = 8776;
},
{
glyphname = asciitilde;
layers = (
{
layerId = master01;
shapes = (
{
closed = 1;
nodes = (
(437,391,o),
(405,401,o),
(373,401,cs),
(298,401,o),
(244,343,o),
(171,343,cs,{
name = hr01;
}),
(138,343,o),
(107,352,o),
(80,370,c),
(80,290,l),
(105,269,o),
(137,259,o),
(169,259,cs),
(244,259,o),
(298,317,o),
(371,317,cs,{
name = hr02;
}),
(404,317,o),
(435,308,o),
(462,290,c),
(462,370,l)
);
}
);
width = 542;
}
);
unicode = 126;
},
{
glyphname = logicalnot;
layers = (
{
layerId = master01;
shapes = (
{
closed = 1;
nodes = (
(390,290,l),
(390,139,l),
(462,139,l),
(462,370,l),
(80,370,l),
(80,290,l,{
name = hr00;
})
);
}
);
width = 542;
}
);
unicode = 172;
},
{
glyphname = asciicircum;
layers = (
{
layerId = master01;
shapes = (
{
closed = 1;
nodes = (
(84,428,l),
(171,428,l),
(271,595,l),
(371,428,l),
(458,428,l),
(317,660,l),
(225,660,l,{
name = hr00;
})
);
}
);
width = 542;
}
);
unicode = 94;
},
{
glyphname = infinity;
layers = (
{
layerId = master01;
shapes = (
{
closed = 1;
nodes = (
(113,388,o),
(152,441,o),
(211,441,cs),
(276,441,o),
(326,391,o),
(368,330,c),
(326,269,o),
(276,219,o),
(211,219,cs),
(152,219,o),
(113,272,o),
(113,330,cs,{
name = hr00;
})
);
},
{
closed = 1;
nodes = (
(457,199,o),
(516,143,o),
(607,143,cs),
(686,143,o),
(795,189,o),
(795,330,cs),
(795,471,o),
(686,517,o),
(607,517,cs),
(516,517,o),
(457,460,o),
(410,397,c),
(363,460,o),
(309,517,o),
(218,517,cs),
(139,517,o),
(30,471,o),
(30,330,cs),
(30,189,o),
(139,143,o),
(218,143,cs),
(309,143,o),
(363,199,o),
(410,263,c)
);
},
{
closed = 1;
nodes = (
(707,272,o),
(668,219,o),
(609,219,cs),
(544,219,o),
(494,269,o),
(452,330,c),
(494,391,o),
(544,441,o),
(609,441,cs),
(668,441,o),
(707,388,o),
(707,330,c)
);
}
);
width = 825;
}
);
unicode = 8734;
},
{
glyphname = integral;
layers = (
{
layerId = master01;
shapes = (
{
closed = 1;
nodes = (
(261,551,o),
(294,591,o),
(348,591,cs),
(358,591,o),
(371,589,o),
(385,586,c),
(397,670,l),
(380,673,o),
(362,675,o),
(345,675,cs),
(237,675,o),
(165,593,o),
(165,466,cs),
(165,-20,ls),
(165,-111,o),
(133,-151,o),
(79,-151,cs),
(69,-151,o),
(56,-149,o),
(42,-146,c),
(30,-230,l),
(47,-233,o),
(65,-235,o),
(82,-235,cs),
(190,-235,o),
(261,-153,o),
(261,-26,cs),
(261,460,ls,{
name = hr00;
})
);
}
);
width = 427;
}
);
unicode = 8747;
},
{
glyphname = Omega;
layers = (
{
layerId = master01;
shapes = (
{
closed = 1;
nodes = (
(680,0,l),
(680,68,l),
(540,68,l),
(540,153,l),
(634,197,o),
(698,289,o),
(698,401,cs),
(698,608,o),
(557,715,o),
(384,715,cs),
(211,715,o),
(69,608,o),
(69,401,cs),
(69,289,o),
(133,197,o),
(228,153,c),
(228,68,l),
(88,68,l),
(88,0,l),
(304,0,l),
(304,197,l),
(219,224,o),
(159,295,o),
(159,411,cs),
(159,561,o),
(260,641,o),
(384,641,cs),
(508,641,o),
(608,561,o),
(608,411,cs),
(608,296,o),
(548,224,o),
(464,197,c),
(464,0,l,{
name = hr00;
})
);
}
);
width = 767;
}
);
unicode = 8486;
},
{
glyphname = Delta;
layers = (
{
layerId = master01;
shapes = (
{
closed = 1;
nodes = (
(225,700,l),
(15,0,l),
(567,0,l),
(357,700,l,{
name = hr00;
})
);
},
{
closed = 1;
nodes = (
(452,68,l),
(114,68,l),
(283,631,l)
);
}
);
width = 582;
}
);
unicode = 8710;
},
{
glyphname = product;
layers = (
{
layerId = master01;
shapes = (
{
closed = 1;
nodes = (
(40,622,l),
(120,622,l),
(120,-100,l),
(216,-100,l),
(216,622,l),
(470,622,l),
(470,-100,l),
(566,-100,l),
(566,622,l),
(646,622,l),
(646,700,l),
(40,700,l,{
name = hr00;
})
);
}
);
width = 686;
}
);
unicode = 8719;
},
{
glyphname = summation;
layers = (
{
layerId = master01;
shapes = (
{
closed = 1;
nodes = (
(510,-100,l),
(510,-22,l),
(136,-22,l),
(350,286,l),
(367,314,l),
(161,622,l),
(492,622,l),
(492,700,l),
(30,700,l),
(30,656,l),
(267,300,l),
(20,-56,l),
(20,-100,l,{
name = hr00;
})
);
}
);
width = 520;
}
);
unicode = 8721;
},
{
glyphname = radical;
layers = (
{
layerId = master01;
shapes = (
{
closed = 1;
nodes = (
(450,765,l),
(262,-41,l),
(184,335,l),
(90,335,l),
(180,-100,l),
(327,-100,l),
(514,700,l),
(644,700,l),
(644,765,l,{
name = hr00;
})
);
}
);
width = 537;
}
);
unicode = 8730;
},
{
glyphname = partialdiff;
layers = (
{
layerId = master01;
shapes = (
{
closed = 1;
nodes = (
(455,472,o),
(407,495,o),
(354,495,cs),
(215,495,o),
(83,390,o),
(83,188,cs),
(83,54,o),
(165,-15,o),
(282,-15,cs),
(414,-15,o),
(526,64,o),
(561,311,cs),
(568,361,o),
(571,406,o),
(571,448,cs),
(571,657,o),
(488,765,o),
(368,765,cs),
(320,765,o),
(279,755,o),
(243,731,c),
(258,669,l),
(291,682,o),
(320,688,o),
(345,688,cs),
(450,688,o),
(485,566,o),
(485,475,cs),
(485,466,o),
(485,452,o),
(484,440,c),
(475,437,l,{
name = hr00;
})
);
},
{
closed = 1;
nodes = (
(427,417,o),
(459,370,o),
(459,292,cs),
(459,155,o),
(406,63,o),
(293,63,cs),
(210,63,o),
(179,110,o),
(179,186,cs),
(179,298,o),
(219,417,o),
(343,417,cs)
);
}
);
width = 623;
}
);
unicode = 8706;
},
{
glyphname = mu;
layers = (
{
layerId = master01;
shapes = (
{
closed = 1;
nodes = (
(176,-220,l),
(176,22,l),
(193,0,o),
(219,-15,o),
(261,-15,cs),
(325,-15,o),
(381,21,o),
(421,61,c),
(429,2,o),
(464,-15,o),
(510,-15,cs),
(540,-15,o),
(566,-5,o),
(587,5,c),
(571,67,l),
(561,62,o),
(548,58,o),
(537,58,cs),
(522,58,o),
(511,64,o),
(511,85,cs),
(511,530,l),
(415,530,l),
(415,122,l),
(375,86,o),
(327,63,o),
(269,63,cs),
(210,63,o),
(186,99,o),
(186,170,cs),
(186,530,l),
(90,530,l),
(90,-220,l,{
name = hr00;
})
);
}
);
width = 617;
}
);
unicode = 181;
},
{
glyphname = lozenge;
layers = (
{
layerId = master01;
shapes = (
{
closed = 1;
nodes = (
(342,0,l),
(502,350,l),
(342,700,l),
(210,700,l),
(50,350,l),
(210,0,l,{
name = hr00;
})
);
},
{
closed = 1;
nodes = (
(415,333,l),
(283,45,l),
(136,366,l),
(268,655,l)
);
}
);
width = 552;
}
);
unicode = 9674;
},
{
glyphname = commaaccent;
layers = (
{
layerId = master01;
shapes = (
{
closed = 1;
nodes = (
(105,-226,o),
(89,-253,o),
(72,-273,c),
(114,-301,l),
(156,-256,o),
(198,-172,o),
(198,-112,cs),
(198,-69,o),
(172,-50,o),
(136,-50,cs),
(101,-50,o),
(75,-69,o),
(75,-112,cs),
(75,-154,o),
(105,-160,o),
(105,-201,cs,{
name = hr00;
})
);
}
);
width = 270;
}
);
},
{
glyphname = commaaccent.salt;
layers = (
{
layerId = master01;
shapes = (
{
closed = 1;
nodes = (
(179,810,o),
(195,837,o),
(212,857,c),
(170,885,l),
(128,840,o),
(86,756,o),
(86,696,cs),
(86,653,o),
(112,634,o),
(148,634,cs),
(183,634,o),
(209,653,o),
(209,696,cs),
(209,738,o),
(179,744,o),
(179,785,cs,{
name = hr00;
})
);
}
);
width = 296;
}
);
},
{
glyphname = dieresis;
layers = (
{
layerId = master01;
shapes = (
{
closed = 1;
nodes = (
(-4,657,o),
(21,638,o),
(53,638,cs),
(86,638,o),
(111,657,o),
(111,697,cs),
(111,737,o),
(86,756,o),
(53,756,cs),
(21,756,o),
(-4,737,o),
(-4,697,c,{
name = hr00;
})
);
},
{
closed = 1;
nodes = (
(185,657,o),
(210,638,o),
(242,638,cs),
(275,638,o),
(300,657,o),
(300,697,cs),
(300,737,o),
(275,756,o),
(242,756,cs),
(210,756,o),
(185,737,o),
(185,697,c)
);
}
);
width = 296;
}
);
unicode = 168;
},
{
glyphname = dotaccent;
layers = (
{
layerId = master01;
shapes = (
{
closed = 1;
nodes = (
(83,651,o),
(111,630,o),
(148,630,cs),
(186,630,o),
(214,651,o),
(214,697,cs),
(214,743,o),
(186,764,o),
(148,764,cs),
(111,764,o),
(83,743,o),
(83,697,c,{
name = hr00;
})
);
}
);
width = 296;
}
);
unicode = 729;
},
{
glyphname = grave;
layers = (
{
layerId = master01;
shapes = (
{
closed = 1;
nodes = (
(120,717,l),
(335,607,l),
(367,665,l),
(161,790,l,{
name = hr00;
})
);
}
);
width = 419;
}
);
unicode = 96;
},
{
glyphname = acute;
layers = (
{
layerId = master01;
shapes = (
{
closed = 1;
nodes = (
(134,607,l),
(349,717,l),
(308,790,l),
(102,665,l,{
name = hr00;
})
);
}
);
width = 419;
}
);
unicode = 180;
},
{
glyphname = hungarumlaut;
layers = (
{
layerId = master01;
shapes = (
{
closed = 1;
nodes = (
(37,607,l),
(212,717,l),
(162,790,l),
(0,658,l,{
name = hr00;
})
);
},
{
closed = 1;
nodes = (
(256,607,l),
(431,717,l),
(381,790,l),
(219,658,l)
);
}
);
width = 431;
}
);
unicode = 733;
},
{
glyphname = circumflex;
layers = (
{
layerId = master01;
shapes = (
{
closed = 1;
nodes = (
(205,790,l),
(54,658,l),
(91,607,l),
(218,696,l),
(345,607,l),
(382,658,l),
(231,790,l,{
name = hr00;
})
);
}
);
width = 436;
}
);
unicode = 710;
},
{
glyphname = caron;
layers = (
{
layerId = master01;
shapes = (
{
closed = 1;
nodes = (
(231,604,l),
(382,736,l),
(345,787,l),
(218,698,l),
(91,787,l),
(54,736,l),
(205,604,l,{
name = hr00;
})
);
}
);
width = 436;
}
);
unicode = 711;
},
{
glyphname = breve;
layers = (
{
layerId = master01;
shapes = (
{
closed = 1;
nodes = (
(299,749,o),
(272,693,o),
(221,693,cs),
(168,693,o),
(142,744,o),
(116,780,c),
(59,753,l),
(94,678,o),
(144,609,o),
(217,609,cs),
(292,609,o),
(342,679,o),
(377,753,c),
(320,780,l,{
name = hr00;
})
);
}
);
width = 436;
}
);
unicode = 728;
},
{
glyphname = ring;
layers = (
{
layerId = master01;
shapes = (
{
closed = 1;
nodes = (
(38,620,o),
(85,584,o),
(148,584,cs),
(212,584,o),
(259,620,o),
(259,697,cs),
(259,774,o),
(212,810,o),
(148,810,cs),
(85,810,o),
(38,774,o),
(38,697,c,{
name = hr00;
})
);
},
{
closed = 1;
nodes = (
(96,734,o),
(118,751,o),
(148,751,cs),
(179,751,o),
(201,734,o),
(201,697,cs),
(201,660,o),
(179,643,o),
(148,643,cs),
(118,643,o),
(96,660,o),
(96,697,cs)
);
}
);
width = 296;
}
);
unicode = 730;
},
{
glyphname = tilde;
layers = (
{
layerId = master01;
shapes = (
{
closed = 1;
nodes = (
(380,726,o),
(364,720,o),
(345,720,cs),
(294,720,o),
(263,754,o),
(209,754,cs,{
name = hr01;
}),
(173,754,o),
(130,730,o),
(105,672,c),
(162,644,l),
(174,667,o),
(190,673,o),
(209,673,cs),
(260,673,o),
(292,639,o),
(345,639,cs,{
name = hr02;
}),
(382,639,o),
(425,663,o),
(450,721,c),
(393,749,l)
);
}
);
width = 555;
}
);
unicode = 732;
},
{
glyphname = macron;
layers = (
{
layerId = master01;
shapes = (
{
closed = 1;
nodes = (
(422,659,l),
(422,734,l),
(133,734,l),
(133,659,l,{
name = hr00;
})
);
}
);
width = 555;
}
);
unicode = 175;
},
{
glyphname = cedilla;
layers = (
{
layerId = master01;
shapes = (
{
closed = 1;
nodes = (
(172,-188,o),
(212,-210,o),
(260,-210,cs),
(337,-210,o),
(381,-158,o),
(381,-101,cs),
(381,-48,o),
(341,0,o),
(259,27,c),
(243,-6,l),
(282,-26,o),
(299,-58,o),
(299,-85,cs),
(299,-124,o),
(273,-139,o),
(243,-139,cs),
(219,-139,o),
(193,-130,o),
(173,-116,c),
(145,-169,l,{
name = hr00;
})
);
}
);
width = 528;
}
);
unicode = 184;
},
{
glyphname = ogonek;
layers = (
{
layerId = master01;
shapes = (
{
closed = 1;
nodes = (
(238,-124,o),
(212,-133,o),
(188,-133,cs),
(158,-133,o),
(132,-118,o),
(132,-79,cs),
(132,-52,o),
(149,-20,o),
(188,0,c),
(172,33,l),
(90,6,o),
(50,-42,o),
(50,-95,cs),
(50,-152,o),
(94,-204,o),
(171,-204,cs),
(219,-204,o),
(259,-182,o),
(286,-163,c),
(258,-110,l,{
name = hr00;
})
);
}
);
width = 349;
}
);
unicode = 731;
},
{
glyphname = dieresis.case;
layers = (
{
layerId = master01;
shapes = (
{
closed = 1;
nodes = (
(-4,807,o),
(21,788,o),
(53,788,cs),
(86,788,o),
(111,807,o),
(111,847,cs),
(111,887,o),
(86,906,o),
(53,906,cs),
(21,906,o),
(-4,887,o),
(-4,847,c,{
name = hr00;
})
);
},
{
closed = 1;
nodes = (
(185,807,o),
(210,788,o),
(242,788,cs),
(275,788,o),
(300,807,o),
(300,847,cs),
(300,887,o),
(275,906,o),
(242,906,cs),
(210,906,o),
(185,887,o),
(185,847,c)
);
}
);
width = 296;
}
);
},
{
glyphname = dotaccent.case;
layers = (
{
layerId = master01;
shapes = (
{
closed = 1;
nodes = (
(83,801,o),
(111,780,o),
(148,780,cs),
(186,780,o),
(214,801,o),
(214,847,cs),
(214,893,o),
(186,914,o),
(148,914,cs),
(111,914,o),
(83,893,o),
(83,847,c,{
name = hr00;
})
);
}
);
width = 296;
}
);
},
{
glyphname = grave.case;
layers = (
{
layerId = master01;
shapes = (
{
closed = 1;
nodes = (
(120,867,l),
(335,757,l),
(367,815,l),
(161,940,l,{
name = hr00;
})
);
}
);
width = 419;
}
);
},
{
glyphname = acute.case;
layers = (
{
layerId = master01;
shapes = (
{
closed = 1;
nodes = (
(134,757,l),
(349,867,l),
(308,940,l),
(102,815,l,{
name = hr00;
})
);
}
);
width = 419;
}
);
},
{
glyphname = hungarumlaut.case;
layers = (
{
layerId = master01;
shapes = (
{
closed = 1;
nodes = (
(37,757,l),
(212,867,l),
(162,940,l),
(0,808,l,{
name = hr00;
})
);
},
{
closed = 1;
nodes = (
(256,757,l),
(431,867,l),
(381,940,l),
(219,808,l)
);
}
);
width = 431;
}
);
},
{
glyphname = circumflex.case;
layers = (
{
layerId = master01;
shapes = (
{
closed = 1;
nodes = (
(205,940,l),
(54,808,l),
(91,757,l),
(218,846,l),
(345,757,l),
(382,808,l),
(231,940,l,{
name = hr00;
})
);
}
);
width = 436;
}
);
},
{
glyphname = caron.case;
layers = (
{
layerId = master01;
shapes = (
{
closed = 1;
nodes = (
(231,754,l),
(382,886,l),
(345,937,l),
(218,848,l),
(91,937,l),
(54,886,l),
(205,754,l,{
name = hr00;
})
);
}
);
width = 436;
}
);
},
{
glyphname = breve.case;
layers = (
{
layerId = master01;
shapes = (
{
closed = 1;
nodes = (
(299,899,o),
(272,843,o),
(221,843,cs),
(168,843,o),
(142,894,o),
(116,930,c),
(59,903,l),
(94,828,o),
(144,759,o),
(217,759,cs),
(292,759,o),
(342,829,o),
(377,903,c),
(320,930,l,{
name = hr00;
})
);
}
);
width = 436;
}
);
},
{
glyphname = ring.case;
layers = (
{
layerId = master01;
shapes = (
{
closed = 1;
nodes = (
(38,770,o),
(85,734,o),
(148,734,cs),
(212,734,o),
(259,770,o),
(259,847,cs),
(259,924,o),
(212,960,o),
(148,960,cs),
(85,960,o),
(38,924,o),
(38,847,c,{
name = hr00;
})
);
},
{
closed = 1;
nodes = (
(96,884,o),
(118,901,o),
(148,901,cs),
(179,901,o),
(201,884,o),
(201,847,cs),
(201,810,o),
(179,793,o),
(148,793,cs),
(118,793,o),
(96,810,o),
(96,847,cs)
);
}
);
width = 296;
}
);
},
{
glyphname = tilde.case;
layers = (
{
layerId = master01;
shapes = (
{
closed = 1;
nodes = (
(380,876,o),
(364,870,o),
(345,870,cs),
(294,870,o),
(263,904,o),
(209,904,cs,{
name = hr01;
}),
(173,904,o),
(130,880,o),
(105,822,c),
(162,794,l),
(174,817,o),
(190,823,o),
(209,823,cs),
(260,823,o),
(292,789,o),
(345,789,cs,{
name = hr02;
}),
(382,789,o),
(425,813,o),
(450,871,c),
(393,899,l)
);
}
);
width = 555;
}
);
},
{
glyphname = macron.case;
layers = (
{
layerId = master01;
shapes = (
{
closed = 1;
nodes = (
(422,809,l),
(422,884,l),
(133,884,l),
(133,809,l,{
name = hr00;
})
);
}
);
width = 555;
}
);
},
{
glyphname = caron.salt;
layers = (
{
layerId = master01;
shapes = (
{
closed = 1;
nodes = (
(38,653,o),
(22,626,o),
(5,606,c),
(47,578,l),
(89,623,o),
(131,707,o),
(131,767,cs),
(131,810,o),
(105,829,o),
(69,829,cs),
(34,829,o),
(8,810,o),
(8,767,cs),
(8,725,o),
(38,719,o),
(38,678,cs,{
name = hr00;
})
);
}
);
width = 136;
}
);
},
{
glyphname = barra;
layers = (
{
layerId = master01;
shapes = (
{
closed = 1;
nodes = (
(405,266,l),
(405,336,l),
(65,336,l),
(65,266,l,{
name = hr00;
})
);
}
);
width = 470;
}
);
},
{
glyphname = eslash;
layers = (
{
layerId = master01;
shapes = (
{
closed = 1;
nodes = (
(342,487,l),
(312,545,l),
(30,401,l),
(60,343,l,{
name = hr00;
})
);
}
);
width = 372;
}
);
},
{
glyphname = ringacute;
layers = (
{
layerId = master01;
shapes = (
{
closed = 1;
nodes = (
(38,620,o),
(85,584,o),
(148,584,cs),
(212,584,o),
(259,620,o),
(259,697,cs),
(259,731,o),
(249,758,o),
(233,776,c),
(319,807,l),
(288,880,l),
(170,808,l),
(163,809,o),
(156,810,o),
(148,810,cs),
(85,810,o),
(38,774,o),
(38,697,cs,{
name = hr00;
})
);
},
{
closed = 1;
nodes = (
(96,734,o),
(118,751,o),
(148,751,cs),
(179,751,o),
(201,734,o),
(201,697,cs),
(201,660,o),
(179,643,o),
(148,643,cs),
(118,643,o),
(96,660,o),
(96,697,cs)
);
}
);
width = 296;
}
);
},
{
glyphname = "thin-slash";
layers = (
{
layerId = master01;
shapes = (
{
closed = 1;
nodes = (
(286,755,l),
(30,-55,l),
(95,-55,l),
(352,755,l,{
name = hr00;
})
);
}
);
width = 382;
}
);
},
{
glyphname = ringacute.case;
layers = (
{
layerId = master01;
shapes = (
{
closed = 1;
nodes = (
(38,770,o),
(85,734,o),
(148,734,cs),
(212,734,o),
(259,770,o),
(259,847,cs),
(259,881,o),
(249,908,o),
(233,926,c),
(319,957,l),
(288,1030,l),
(170,958,l),
(163,959,o),
(156,960,o),
(148,960,cs),
(85,960,o),
(38,924,o),
(38,847,cs,{
name = hr00;
})
);
},
{
closed = 1;
nodes = (
(96,884,o),
(118,901,o),
(148,901,cs),
(179,901,o),
(201,884,o),
(201,847,cs),
(201,810,o),
(179,793,o),
(148,793,cs),
(118,793,o),
(96,810,o),
(96,847,cs)
);
}
